<svg width="50" height="50" viewBox="0 0 50 50" fill="none" xmlns="http://www.w3.org/2000/svg">
<path d="M46.0656 13.475L30.4406 4.88123C30.2099 4.7543 29.9508 4.68774 29.6875 4.68774C29.4242 4.68774 29.1651 4.7543 28.9344 4.88123L13.3094 13.475C13.0644 13.6099 12.8601 13.808 12.7178 14.0488C12.5755 14.2895 12.5005 14.5641 12.5005 14.8437C12.5005 15.1234 12.5755 15.3979 12.7178 15.6387C12.8601 15.8794 13.0644 16.0776 13.3094 16.2125L28.125 24.3609V41.1093L23.3813 38.5L21.875 41.2359L28.9344 45.1187C29.165 45.2459 29.4241 45.3126 29.6875 45.3126C29.9509 45.3126 30.21 45.2459 30.4406 45.1187L46.0656 36.525C46.3107 36.3902 46.5151 36.192 46.6575 35.9513C46.7998 35.7105 46.875 35.4359 46.875 35.1562V14.8437C46.875 14.564 46.7998 14.2895 46.6575 14.0487C46.5151 13.8079 46.3107 13.6098 46.0656 13.475ZM29.6875 8.03435L42.0703 14.8437L29.6875 21.6531L17.3047 14.8437L29.6875 8.03435ZM43.75 34.2328L31.25 41.1078V24.3594L43.75 17.4844V34.2328Z" fill="white"/>
<path d="M15.625 25H3.125V21.875H15.625V25Z" fill="white"/>
<path d="M18.75 37.5H6.25V34.375H18.75V37.5Z" fill="white"/>
<path d="M21.875 31.25H9.375V28.125H21.875V31.25Z" fill="white"/>
</svg>
