<svg width="36" height="36" viewBox="0 0 36 36" fill="none" xmlns="http://www.w3.org/2000/svg">
<g clip-path="url(#clip0)">
<path d="M1.383 29.973C2.09169 30.6377 3.02835 31.0053 4 31H32C34.209 31 36 29.209 36 26.5V18H17.5L1.383 29.973Z" fill="#D7141A"/>
<path d="M32 5H4C3.02452 4.99974 2.08292 5.35774 1.354 6.006L17.5 18H36V9C36 7.93913 35.5786 6.92172 34.8284 6.17157C34.0783 5.42143 33.0609 5 32 5Z" fill="#EEEEEE"/>
<path d="M1.383 29.973L17.5 18L1.354 6.00598C0.928425 6.38008 0.587524 6.84064 0.35404 7.35693C0.120556 7.87321 -0.000141693 8.43335 1.24831e-07 8.99998V26.5C1.24831e-07 27.98 0.537 29.183 1.383 29.973Z" fill="#11457E"/>
</g>
<defs>
<clipPath id="clip0">
<rect width="36" height="36" fill="white"/>
</clipPath>
</defs>
</svg>
