<svg width="36" height="36" viewBox="0 0 36 36" fill="none" xmlns="http://www.w3.org/2000/svg">
<path d="M36 27C36 28.0609 35.5786 29.0783 34.8284 29.8284C34.0783 30.5786 33.0609 31 32 31H4C2.93913 31 1.92172 30.5786 1.17157 29.8284C0.421427 29.0783 0 28.0609 0 27V9C0 7.93913 0.421427 6.92172 1.17157 6.17157C1.92172 5.42143 2.93913 5 4 5H32C33.0609 5 34.0783 5.42143 34.8284 6.17157C35.5786 6.92172 36 7.93913 36 9V27Z" fill="#00AFCA"/>
<path d="M19.035 19.378C20.6173 19.378 21.9 18.0953 21.9 16.513C21.9 14.9307 20.6173 13.648 19.035 13.648C17.4527 13.648 16.17 14.9307 16.17 16.513C16.17 18.0953 17.4527 19.378 19.035 19.378Z" fill="#FFCC4D"/>
<path d="M19.037 13.432C19.207 13.43 19.269 13.323 19.269 13.196C19.269 13.026 19.037 11.7 19.037 11.7C19.037 11.7 18.801 13.026 18.801 13.196C18.801 13.323 18.865 13.432 19.037 13.432ZM19.037 19.61C18.865 19.611 18.801 19.718 18.801 19.845C18.801 20.016 19.037 21.324 19.037 21.324C19.037 21.324 19.269 20.015 19.269 19.845C19.27 19.719 19.207 19.61 19.037 19.61ZM18.236 19.489C18.071 19.447 17.984 19.534 17.951 19.657C17.907 19.821 17.788 21.163 17.788 21.163C17.788 21.163 18.359 19.942 18.403 19.778C18.437 19.655 18.402 19.533 18.236 19.489V19.489ZM19.836 13.521C20.002 13.565 20.092 13.477 20.125 13.355C20.169 13.19 20.279 11.865 20.279 11.865C20.279 11.865 19.717 13.068 19.672 13.234C19.639 13.356 19.671 13.477 19.836 13.521V13.521ZM17.493 19.179C17.344 19.096 17.237 19.157 17.174 19.268C17.089 19.415 16.627 20.68 16.627 20.68C16.627 20.68 17.494 19.649 17.579 19.502C17.643 19.391 17.642 19.265 17.493 19.179V19.179ZM20.582 13.828C20.731 13.914 20.841 13.852 20.904 13.742C20.99 13.594 21.439 12.344 21.439 12.344C21.439 12.344 20.583 13.361 20.497 13.508C20.435 13.618 20.435 13.743 20.582 13.828ZM16.855 18.69C16.733 18.571 16.614 18.602 16.524 18.692C16.404 18.813 15.63 19.915 15.63 19.915C15.63 19.915 16.735 19.143 16.855 19.024C16.945 18.934 16.977 18.81 16.855 18.69V18.69ZM21.224 14.32C21.346 14.441 21.467 14.41 21.557 14.32C21.678 14.2 22.436 13.107 22.436 13.107C22.436 13.107 21.347 13.869 21.227 13.99C21.137 14.08 21.104 14.2 21.224 14.32V14.32ZM16.367 18.051C16.28 17.905 16.157 17.905 16.046 17.968C15.898 18.053 14.866 18.917 14.866 18.917C14.866 18.917 16.133 18.459 16.28 18.374C16.391 18.31 16.453 18.2 16.367 18.051V18.051ZM21.717 14.962C21.804 15.111 21.93 15.112 22.039 15.049C22.187 14.963 23.202 14.105 23.202 14.105C23.202 14.105 21.953 14.558 21.805 14.643C21.695 14.707 21.633 14.814 21.717 14.962ZM16.06 17.308C16.014 17.144 15.894 17.112 15.771 17.144C15.607 17.188 14.386 17.756 14.386 17.756C14.386 17.756 15.728 17.641 15.892 17.597C16.015 17.563 16.104 17.474 16.06 17.308V17.308ZM22.026 15.708C22.072 15.874 22.192 15.908 22.315 15.875C22.48 15.831 23.683 15.265 23.683 15.265C23.683 15.265 22.359 15.379 22.193 15.423C22.071 15.455 21.982 15.544 22.026 15.708ZM15.955 16.511C15.953 16.341 15.846 16.279 15.719 16.279C15.549 16.279 14.223 16.511 14.223 16.511C14.223 16.511 15.549 16.747 15.719 16.747C15.846 16.747 15.955 16.683 15.955 16.511ZM22.133 16.511C22.134 16.683 22.241 16.747 22.368 16.747C22.539 16.747 23.847 16.511 23.847 16.511C23.847 16.511 22.538 16.279 22.368 16.279C22.241 16.278 22.133 16.341 22.133 16.511ZM16.06 15.714C16.102 15.549 16.015 15.462 15.892 15.429C15.728 15.385 14.386 15.266 14.386 15.266C14.386 15.266 15.607 15.837 15.771 15.881C15.894 15.914 16.016 15.88 16.06 15.714ZM22.027 17.313C21.983 17.479 22.071 17.569 22.193 17.602C22.358 17.646 23.683 17.756 23.683 17.756C23.683 17.756 22.48 17.193 22.314 17.149C22.192 17.117 22.071 17.148 22.027 17.313V17.313ZM16.368 14.971C16.451 14.823 16.39 14.715 16.279 14.652C16.132 14.567 14.867 14.105 14.867 14.105C14.867 14.105 15.898 14.972 16.045 15.057C16.156 15.121 16.282 15.119 16.368 14.971V14.971ZM21.719 18.06C21.633 18.209 21.695 18.319 21.805 18.382C21.952 18.468 23.203 18.917 23.203 18.917C23.203 18.917 22.186 18.062 22.039 17.976C21.929 17.913 21.804 17.913 21.719 18.06V18.06ZM16.857 14.333C16.976 14.211 16.945 14.092 16.855 14.002C16.734 13.882 15.632 13.108 15.632 13.108C15.632 13.108 16.404 14.213 16.523 14.333C16.613 14.423 16.736 14.455 16.857 14.333ZM21.227 18.702C21.106 18.824 21.137 18.946 21.227 19.035C21.347 19.156 22.44 19.914 22.44 19.914C22.44 19.914 21.678 18.825 21.557 18.704C21.467 18.614 21.347 18.581 21.227 18.702V18.702ZM17.497 13.844C17.642 13.757 17.643 13.634 17.58 13.523C17.495 13.376 16.631 12.343 16.631 12.343C16.631 12.343 17.089 13.61 17.174 13.757C17.237 13.868 17.348 13.93 17.497 13.844V13.844ZM20.586 19.195C20.438 19.281 20.436 19.406 20.499 19.516C20.585 19.664 21.443 20.679 21.443 20.679C21.443 20.679 20.99 19.429 20.905 19.281C20.841 19.172 20.733 19.109 20.586 19.195V19.195ZM18.239 13.537C18.403 13.491 18.435 13.371 18.403 13.248C18.359 13.084 17.791 11.863 17.791 11.863C17.791 11.863 17.906 13.205 17.95 13.369C17.983 13.492 18.073 13.581 18.239 13.537V13.537ZM19.839 19.504C19.673 19.55 19.639 19.67 19.672 19.793C19.716 19.958 20.282 21.161 20.282 21.161C20.282 21.161 20.168 19.836 20.124 19.672C20.092 19.549 20.003 19.46 19.839 19.504V19.504Z" fill="#FFCC4D"/>
<path d="M21.846 23.645L21.809 23.661L21.768 23.667L21.737 23.673L21.68 23.661L21.655 23.651L21.632 23.64L21.605 23.623L21.56 23.591L21.519 23.558L21.496 23.542L21.467 23.53L21.447 23.525H21.418L21.305 23.76L21.282 23.793L21.26 23.82L21.237 23.837L21.217 23.854L21.188 23.865H21.161L21.136 23.854L21.101 23.837L21.091 23.82L21.079 23.803L21.067 23.781L21.055 23.755L21.039 23.672L21.006 23.699L20.975 23.738L20.913 23.832L20.876 23.881L20.837 23.919L20.816 23.942L20.789 23.959L20.762 23.971L20.729 23.981H20.713L20.684 23.987L20.657 23.981L20.636 23.971L20.572 23.894L20.5 23.817L20.451 23.894L20.394 23.959L20.367 23.986L20.342 24.013L20.315 24.035L20.264 24.063L20.237 24.069H20.21L20.187 24.063L20.165 24.051L20.149 24.034L20.128 24.008C20.1141 23.9673 20.0991 23.9269 20.083 23.887L20.077 23.859L20.067 23.838L20.055 23.827H20.043L19.895 24.069L19.874 24.09L19.835 24.107L19.749 24.128H19.698L19.659 24.117L19.647 24.111L19.631 24.094L19.627 24.084V24.062L19.647 23.82L19.631 23.826L19.588 23.847C19.5486 23.888 19.5103 23.93 19.473 23.973L19.424 24.034L19.363 24.085L19.306 24.128L19.274 24.146L19.208 24.156L19.181 24.15L19.169 24.146L19.158 24.134L19.152 24.117V24.1L19.158 24.03L19.175 23.919L19.164 23.854L19.141 23.816L19.108 23.865L19.054 23.936C19.009 23.985 18.963 24.033 18.916 24.08C18.8897 24.0974 18.864 24.1158 18.839 24.135L18.779 24.156L18.767 24.15H18.75L18.738 24.14L18.734 24.134L18.722 24.117L18.718 24.1V24.079L18.712 24.051L18.718 23.843C18.618 23.911 18.517 23.977 18.415 24.04L18.377 24.057L18.334 24.079C18.293 24.089 18.253 24.099 18.213 24.111H18.173L18.136 24.106L18.102 24.094L18.119 24.05L18.152 23.973L18.173 23.941L18.197 23.908L18.218 23.875L18.274 23.82L18.335 23.777L18.405 23.732L18.477 23.699L18.56 23.672L18.642 23.651L18.829 23.618L18.922 23.606C19.198 23.59 19.475 23.588 19.751 23.59L20.054 23.573L20.148 23.562L20.322 23.529L20.406 23.506L20.484 23.474L20.556 23.441C20.594 23.411 20.633 23.381 20.673 23.353L20.726 23.291L20.669 23.182L20.714 23.176L20.757 23.166L20.802 23.144L20.839 23.116L20.855 23.106L20.873 23.089L20.885 23.067L20.897 23.051L20.901 23.029V22.991L20.889 22.969L20.983 22.952L21.083 22.941L21.188 22.935H21.297C21.45 22.941 21.602 22.95 21.754 22.962C21.984 22.99 22.215 23.012 22.446 23.034L22.653 23.045V23.121L22.649 23.155L22.637 23.187L22.627 23.22L22.615 23.247L22.599 23.269C22.58 23.291 22.559 23.313 22.538 23.334L22.489 23.366L22.436 23.388L22.383 23.4L22.322 23.411L22.205 23.4L22.144 23.383L22.091 23.355L22.034 23.328L21.991 23.289L21.948 23.246V23.34C21.94 23.401 21.93 23.461 21.921 23.522L21.9 23.579L21.888 23.602L21.872 23.618L21.86 23.635L21.846 23.645V23.645ZM17.428 23.128L17.553 23.183C17.578 23.1621 17.6037 23.1421 17.63 23.123L17.679 23.097L17.723 23.069L17.888 23.003L18.03 22.937L18.102 22.91L18.224 22.845L18.273 22.811C18.397 22.73 18.522 22.65 18.647 22.571L18.756 22.494L18.839 22.428C18.921 22.354 19.001 22.279 19.081 22.203L19.114 22.181L19.152 22.159C19.1975 22.136 19.2435 22.114 19.29 22.093L19.383 22.061C19.569 22.01 19.758 21.97 19.948 21.94C20.142 21.917 20.336 21.891 20.53 21.869L20.788 21.825C20.852 21.807 20.916 21.791 20.981 21.776L21.047 21.693L21.153 21.578L21.225 21.507L21.305 21.44L21.399 21.369L21.508 21.297L21.674 21.199C21.793 21.139 21.911 21.079 22.029 21.017C22.239 20.919 22.446 20.815 22.652 20.709L22.75 20.643L22.777 20.56L22.816 20.479L22.865 20.396L22.992 20.226C23.05 20.164 23.106 20.102 23.162 20.038C23.23 19.972 23.3 19.908 23.371 19.846L23.477 19.759L23.53 19.72L23.587 19.682C23.627 19.659 23.667 19.637 23.708 19.616L23.769 19.588L23.828 19.567L23.957 19.533L24.021 19.529L24.082 19.523L24.146 19.529L24.207 19.539L24.203 19.605L24.187 19.67L24.138 19.808L24.097 19.879L24.048 19.951L23.988 20.027L23.916 20.104L23.973 20.098L24.022 20.087L24.061 20.075L24.098 20.059L24.17 20.037L24.273 20.026L24.279 20.065V20.103L24.273 20.141L24.263 20.174L24.247 20.207L24.224 20.24L24.203 20.266L24.176 20.294C24.1005 20.3669 24.0234 20.4382 23.945 20.508L24.01 20.514C24.058 20.529 24.106 20.544 24.155 20.557L24.208 20.569L24.144 20.619C24.0933 20.6529 24.0419 20.6859 23.99 20.718L23.814 20.817L23.726 20.872L23.638 20.933L23.556 20.999L23.593 21.004L23.644 21.026L23.666 21.032L23.687 21.043L23.705 21.048L23.721 21.043L23.612 21.104C23.5439 21.136 23.4762 21.169 23.409 21.203L23.325 21.253L23.309 21.27L23.299 21.287L23.287 21.303L23.291 21.325L23.303 21.342L23.324 21.358L23.344 21.376L23.336 21.397L23.324 21.415L23.303 21.431L23.283 21.448L23.23 21.474L23.166 21.502L23.041 21.546L22.963 21.585L23.072 21.694L23.033 21.732L22.996 21.76L22.963 21.777L22.924 21.793L22.848 21.804H22.74L22.752 21.854L22.768 21.903L22.791 22.014C22.7228 22.067 22.6531 22.118 22.582 22.167L22.455 22.249L22.314 22.331L22.23 22.37L22.148 22.408C22.0554 22.444 21.9617 22.477 21.867 22.507L21.654 22.552L21.537 22.569C21.664 22.573 21.791 22.575 21.918 22.574L22.23 22.541L22.367 22.514L22.488 22.481C22.568 22.454 22.646 22.424 22.724 22.393L22.876 22.323L23.026 22.24L23.167 22.151L23.317 22.064L23.227 22.02L23.141 21.993L23.1 21.974C23.069 21.959 23.038 21.944 23.006 21.931L22.955 21.903L22.998 21.871L23.051 21.849L23.108 21.828C23.174 21.812 23.241 21.797 23.307 21.783C23.393 21.774 23.479 21.763 23.565 21.751L23.674 21.74L23.758 21.719L23.78 21.707L23.796 21.69L23.792 21.684L23.78 21.673L23.764 21.667L23.743 21.657L23.682 21.645L23.604 21.634L23.528 21.628L23.452 21.617L23.384 21.6L23.343 21.583L23.88 21.463L23.974 21.435C24.015 21.42 24.055 21.403 24.095 21.386L24.148 21.352L24.171 21.331L24.165 21.326L24.155 21.314L24.104 21.303L24.034 21.297H23.95C23.893 21.293 23.837 21.289 23.78 21.287L23.71 21.275L23.665 21.264L23.743 21.232C23.859 21.196 23.977 21.163 24.095 21.132C24.162 21.109 24.23 21.086 24.298 21.066L24.402 21.022L24.451 20.995L24.496 20.968L24.512 20.951L24.529 20.929L24.545 20.913L24.551 20.896L24.545 20.879L24.529 20.867L24.512 20.863H24.36L24.288 20.867H24.19L24.161 20.863L24.142 20.851L24.118 20.84C24.318 20.708 24.52 20.577 24.723 20.449L24.881 20.339C24.9236 20.3037 24.9653 20.2674 25.006 20.23L25.055 20.175L25.1 20.12L25.133 20.06L25.16 20L25.176 19.933V19.862H25.139L25.1 19.868L25.014 19.9C24.9378 19.9479 24.8605 19.9939 24.782 20.038L24.739 20.066L24.688 20.087L24.639 20.104L24.594 20.115L24.551 20.121H24.5L24.457 20.104L24.59 20.005C24.697 19.914 24.803 19.822 24.908 19.73C25.0241 19.6191 25.1374 19.5054 25.248 19.389L25.406 19.213C25.453 19.151 25.501 19.091 25.55 19.031C25.589 18.975 25.628 18.918 25.665 18.861L25.677 18.84L25.681 18.823L25.677 18.8L25.671 18.784L25.665 18.766L25.649 18.755L25.632 18.738L25.616 18.732L25.595 18.722L25.571 18.716H25.528L25.507 18.722L25.478 18.726L25.462 18.744L25.439 18.761C25.327 18.873 25.216 18.987 25.107 19.102L24.974 19.228C24.8867 19.3041 24.7987 19.3794 24.71 19.454C24.6683 19.4823 24.6259 19.5096 24.583 19.536L24.462 19.597L24.499 19.564C24.539 19.526 24.578 19.488 24.616 19.449C24.757 19.287 24.892 19.119 25.022 18.949L25.276 18.592L25.344 18.472L25.412 18.362L25.467 18.262L25.51 18.168L25.537 18.092L25.543 18.065V18.021L25.537 18.004L25.517 17.971L25.505 17.96L25.487 17.955L25.456 17.937L25.415 17.926H25.34L25.319 17.932L25.303 17.937L25.28 17.949L25.264 17.965L25.219 18.004C25.1697 18.0633 25.122 18.124 25.076 18.186C24.966 18.358 24.85 18.526 24.73 18.691L24.591 18.856L24.521 18.928L24.445 18.994L24.543 18.811L24.697 18.488L24.797 18.252L24.84 18.131L24.916 17.883C24.935 17.803 24.952 17.723 24.967 17.642C24.974 17.567 24.98 17.492 24.985 17.416L24.977 17.361L24.973 17.312L24.967 17.261L24.951 17.197L24.939 17.179L24.912 17.152L24.875 17.136L24.834 17.124H24.797L24.762 17.13L24.752 17.136L24.736 17.14L24.73 17.152C24.631 17.464 24.556 17.782 24.47 18.097C24.438 18.185 24.406 18.273 24.372 18.361L24.29 18.52L24.239 18.591L24.272 18.433C24.288 18.341 24.302 18.25 24.315 18.158L24.338 17.932L24.344 17.838C24.341 17.7902 24.337 17.7426 24.332 17.695L24.322 17.64L24.306 17.596L24.283 17.563L24.271 17.552L24.238 17.541L24.222 17.535H24.204L24.188 17.541L24.143 17.552L24.1 17.574C24.066 17.744 24.025 17.913 23.979 18.08C23.9135 18.2906 23.8368 18.4976 23.749 18.7C23.6897 18.8244 23.6271 18.9471 23.561 19.068L23.44 19.277L23.309 19.474C23.2211 19.597 23.1301 19.7177 23.036 19.836C22.944 19.94 22.85 20.042 22.755 20.144C22.656 20.241 22.555 20.337 22.452 20.431C22.346 20.519 22.239 20.604 22.13 20.688C21.9971 20.7841 21.861 20.8758 21.722 20.963L21.48 21.105L21.095 21.282L20.699 21.424L20.371 21.524L20.031 21.6L19.861 21.628L19.513 21.672L19.337 21.683L19.32 21.689L19.303 21.694L19.27 21.712L19.233 21.738C19.19 21.7755 19.1476 21.8139 19.106 21.853L19.018 21.942L18.699 22.298L18.578 22.419L18.436 22.528L18.38 22.566L18.325 22.6L18.205 22.655C18.019 22.731 17.83 22.8 17.643 22.875L17.594 22.902L17.55 22.925L17.518 22.946L17.457 23.007L17.44 23.034L17.428 23.061L17.424 23.1V23.128" fill="#FFCC4D"/>
<path d="M19.441 23.375L19.533 23.387L19.578 23.404L19.588 23.409V23.415H19.578L19.566 23.42L19.478 23.437H19.408L19.178 23.42L18.595 23.409C18.441 23.411 18.287 23.415 18.133 23.42C17.997 23.43 17.862 23.441 17.726 23.453L17.621 23.47L17.528 23.491C17.506 23.499 17.485 23.507 17.463 23.513L17.435 23.525L17.413 23.542L17.423 23.486L17.447 23.43L17.37 23.452L17.304 23.485L17.278 23.502L17.255 23.524L17.238 23.55L17.234 23.578L17.218 23.54L17.206 23.506C17.2031 23.4822 17.1991 23.4585 17.194 23.435C17.2 23.406 17.206 23.377 17.21 23.348L17.228 23.32L17.238 23.298L17.261 23.272L17.305 23.228L17.365 23.189L17.433 23.151C17.4688 23.172 17.5071 23.1884 17.547 23.2C17.5863 23.2035 17.626 23.1998 17.664 23.189C17.725 23.243 17.883 23.232 17.905 23.134C17.9135 23.0978 17.9135 23.0602 17.905 23.024L17.971 23.019L18.048 23.007L18.218 22.963L18.307 22.946L18.389 22.925L18.466 22.914L18.531 22.908L18.504 22.931L18.361 23.04L18.307 23.078L18.377 23.096L18.438 23.107L18.308 23.255L18.274 23.299L18.317 23.316L18.361 23.328L18.411 23.339H18.51L18.608 23.317L18.647 23.294L18.692 23.317L18.736 23.334C18.764 23.342 18.793 23.35 18.822 23.356C18.89 23.363 18.958 23.371 19.027 23.377H19.441V23.375ZM18.94 21.705L18.891 21.804L18.835 21.931C18.8062 21.9827 18.7792 22.0354 18.754 22.089L18.726 22.117L18.661 22.062L18.589 22.012L18.512 21.973L18.431 21.941L18.254 21.896L18.167 21.88C18.0719 21.869 17.9765 21.86 17.881 21.853C17.7545 21.851 17.6281 21.845 17.502 21.835L17.326 21.814L17.227 21.797L17.134 21.776L17.036 21.742L16.953 21.699L16.892 21.659L16.766 21.566C16.582 21.393 16.4 21.218 16.211 21.049L16.102 20.973L16.052 20.951L16 20.935L15.907 20.914C15.8527 20.8946 15.798 20.8763 15.743 20.859C15.6918 20.8343 15.6401 20.8106 15.588 20.788C15.4973 20.7318 15.4095 20.6711 15.325 20.606L15.27 20.555L15.161 20.446L15.056 20.331C14.883 20.12 14.72 19.902 14.551 19.688C14.4702 19.6022 14.3878 19.5178 14.304 19.435L14.233 19.37L14.161 19.31L14.003 19.195L13.987 19.2L13.969 19.217L13.952 19.239C13.942 19.264 13.934 19.29 13.926 19.316L13.92 19.338L13.88 19.32L13.847 19.303L13.807 19.286L13.774 19.275H13.703L13.664 19.286L13.626 19.303C13.656 19.341 13.685 19.379 13.713 19.418L13.762 19.495L13.851 19.665L13.883 19.748L13.895 19.792L13.907 19.825L13.912 19.863V19.895H13.616L13.659 19.961C13.692 20.006 13.727 20.05 13.762 20.093L13.944 20.275L14.005 20.324L14.061 20.363C14.0134 20.368 13.9657 20.372 13.918 20.375L13.774 20.391L13.823 20.436C13.866 20.466 13.908 20.497 13.95 20.529L14.021 20.578L14.093 20.622L14.164 20.661L14.23 20.683L14.291 20.699L14.34 20.71L14.356 20.716L14.368 20.728L14.372 20.733V20.754L14.356 20.799L14.352 20.831L14.345 20.853V20.869L14.352 20.897L14.356 20.919L14.368 20.929L14.384 20.941L14.405 20.952L14.433 20.958L14.489 20.98L14.516 20.99L14.538 21.007L14.543 21.013V21.024L14.538 21.03L14.494 21.062L14.472 21.084L14.45 21.111V21.134L14.445 21.156L14.456 21.215L14.648 21.281L14.692 21.291L14.736 21.309L14.769 21.326L14.797 21.343L14.615 21.486L14.664 21.53L14.725 21.563L14.802 21.601C14.857 21.621 14.912 21.639 14.968 21.657L15.05 21.673L15.122 21.69H15.187L15.126 21.734L15.049 21.783L14.967 21.828L14.906 21.872L14.961 21.91C15.128 21.996 15.299 22.076 15.473 22.147C15.777 22.271 16.088 22.379 16.401 22.476C16.471 22.493 16.54 22.511 16.609 22.531L16.697 22.548L16.52 22.531C16.41 22.5168 16.3003 22.5001 16.191 22.481L16.037 22.448L15.734 22.361L15.592 22.311C15.212 22.163 14.841 21.993 14.46 21.849L14.488 21.833L14.565 21.805L14.614 21.794C14.681 21.774 14.746 21.752 14.812 21.728C14.6811 21.7081 14.5507 21.6848 14.421 21.658C14.3538 21.6361 14.2861 21.6158 14.218 21.597L14.179 21.58L14.146 21.563L14.119 21.545L14.101 21.529V21.524L14.107 21.518L14.124 21.512L14.14 21.501L14.184 21.484L14.376 21.428L14.487 21.39C14.328 21.36 14.168 21.333 14.008 21.308L13.931 21.29L13.87 21.269L13.848 21.257L13.827 21.24L13.809 21.23L13.798 21.212L13.815 21.201L13.864 21.19C13.915 21.182 13.967 21.173 14.018 21.163L14.106 21.152C14.156 21.138 14.205 21.123 14.254 21.107L14.277 21.091L14.299 21.073L14.212 21.04L14.156 21.03L14.101 21.018L13.849 20.985L13.783 20.969L13.722 20.957L13.601 20.914L13.545 20.886L13.5 20.854L13.456 20.815L13.423 20.766L13.435 20.76L13.456 20.754H13.484L13.528 20.76L13.737 20.771L13.859 20.783H14.012L14.055 20.777L14.089 20.766L14.111 20.754C14.0075 20.7119 13.9049 20.6679 13.803 20.622C13.7356 20.5878 13.6676 20.5548 13.599 20.523L13.391 20.414L13.292 20.353C13.231 20.3099 13.1707 20.2659 13.111 20.221L13.034 20.155L13 20.117L12.966 20.084L12.945 20.051L12.922 20.012L12.9 19.98L12.888 19.942L12.879 19.871H12.916L12.96 19.876L13.004 19.894L13.048 19.91L13.135 19.965L13.234 20.02L13.278 20.048L13.327 20.074L13.376 20.096L13.42 20.113L13.469 20.125L13.513 20.13H13.563L13.606 20.113L13.476 20.013C13.3683 19.9236 13.262 19.8326 13.157 19.74C12.983 19.5743 12.8158 19.4015 12.656 19.222L12.586 19.129L12.514 19.041C12.4745 18.9845 12.4359 18.9275 12.398 18.87L12.388 18.848V18.81L12.393 18.793L12.398 18.777L12.415 18.766L12.431 18.749L12.449 18.737L12.47 18.731L12.492 18.727H12.536L12.563 18.731L12.587 18.737L12.608 18.754C12.727 18.872 12.844 18.991 12.959 19.112C13.086 19.234 13.218 19.352 13.355 19.464L13.481 19.545L13.546 19.579L13.607 19.6L13.564 19.573L13.449 19.458C13.308 19.296 13.174 19.128 13.042 18.958C12.9839 18.8781 12.9269 18.7975 12.871 18.716C12.8212 18.6363 12.7698 18.5577 12.717 18.48C12.6751 18.4112 12.6348 18.3415 12.596 18.271C12.5737 18.2139 12.5504 18.1572 12.526 18.101L12.519 18.074V18.029L12.526 18.013L12.547 17.98L12.559 17.968L12.576 17.958L12.647 17.935H12.724L12.746 17.94L12.762 17.946L12.784 17.958L12.845 18.013L12.988 18.195C13.1 18.367 13.218 18.535 13.34 18.7L13.47 18.865L13.542 18.936L13.619 19.002C13.5314 18.8358 13.4474 18.6678 13.367 18.498C13.333 18.4198 13.3 18.3411 13.268 18.262L13.224 18.141C13.2008 18.0576 13.1751 17.9749 13.147 17.893L13.12 17.772L13.1 17.649L13.088 17.534L13.083 17.425L13.088 17.37L13.095 17.32L13.1 17.27L13.111 17.221L13.122 17.203L13.128 17.187L13.144 17.169L13.155 17.159L13.193 17.142L13.232 17.132H13.27L13.303 17.138L13.319 17.142L13.331 17.148L13.337 17.16L13.343 17.176C13.437 17.483 13.514 17.795 13.595 18.106C13.627 18.193 13.66 18.279 13.695 18.364L13.733 18.446L13.777 18.523L13.826 18.6L13.794 18.44C13.7814 18.3487 13.7668 18.2576 13.75 18.167C13.739 18.0608 13.73 17.9545 13.723 17.848L13.734 17.705L13.745 17.649L13.762 17.606L13.784 17.573L13.795 17.561L13.811 17.55L13.827 17.545H13.877L13.922 17.561L13.965 17.583L14.042 17.929C14.07 18.034 14.101 18.139 14.135 18.242C14.191 18.399 14.252 18.555 14.317 18.709L14.394 18.868L14.504 19.078L14.624 19.286L14.757 19.484L14.899 19.681L15.032 19.846C15.124 19.95 15.217 20.053 15.312 20.154C15.411 20.251 15.512 20.346 15.615 20.439L15.774 20.572C15.92 20.686 16.07 20.794 16.225 20.896C16.346 20.968 16.469 21.038 16.593 21.105L16.971 21.287C17.163 21.363 17.357 21.433 17.553 21.495C17.745 21.546 17.94 21.59 18.136 21.627C18.399 21.669 18.669 21.694 18.94 21.705" fill="#FFCC4D"/>
<path d="M3.45699 28.522C3.45699 28.522 3.21999 28.719 3.13999 28.62C3.01099 28.46 3.53699 27.661 3.53699 27.379C3.53699 26.918 3.22799 26.79 2.84799 26.725C2.59199 26.681 2.17699 26.744 2.17699 26.744C2.25499 26.849 2.30599 26.882 2.43799 26.888C2.34704 26.9358 2.27119 27.008 2.21891 27.0965C2.16664 27.185 2.14001 27.2863 2.14199 27.389C2.14199 27.785 2.30599 27.949 2.30599 28.398C2.30599 28.647 2.10199 28.963 2.10199 28.963C2.46199 28.927 2.64199 28.594 2.53999 28.326C2.56755 28.3209 2.59594 28.3224 2.62275 28.3306C2.64957 28.3388 2.67401 28.3533 2.69399 28.373C2.71999 28.3 2.67899 28.213 2.62299 28.14C2.66799 28.117 2.70099 28.131 2.77199 28.145C2.76499 28.069 2.71899 27.989 2.60799 27.913C2.93199 27.996 3.13099 27.771 3.13099 27.535C3.13099 27.355 3.00599 27.227 2.88299 27.227C2.8364 27.2285 2.79111 27.2427 2.75199 27.268C2.72899 27.22 2.74099 27.154 2.76399 27.105C2.67499 27.128 2.61799 27.181 2.65899 27.293C2.62849 27.2935 2.59843 27.3003 2.57071 27.3131C2.54299 27.3258 2.51823 27.3442 2.49799 27.367C2.51712 27.391 2.54172 27.4101 2.56973 27.4226C2.59775 27.4351 2.62835 27.4407 2.65899 27.439C2.60899 27.543 2.66499 27.602 2.74599 27.648C2.74599 27.648 2.69399 27.439 2.82699 27.439C2.88699 27.439 2.94099 27.46 2.94099 27.547C2.94099 27.622 2.87399 27.728 2.71999 27.722C2.56499 27.715 2.43999 27.615 2.43999 27.37C2.43999 27.141 2.62299 27.028 2.86399 27.021C3.08199 27.014 3.24599 27.132 3.24599 27.357C3.24599 27.655 2.81399 28.337 2.81399 28.603C2.81399 28.803 2.99299 28.914 3.16899 28.914C3.39699 28.914 3.58899 28.688 3.58899 28.688L3.45699 28.522V28.522ZM3.40699 23.12C3.40699 22.622 3.85499 22.365 4.20699 22.365C4.68099 22.365 4.93399 22.649 4.93399 23.019C4.93399 23.231 4.89499 23.363 4.79799 23.564L3.71099 25.821C3.6712 25.9158 3.65375 26.0184 3.65999 26.121C3.65999 26.323 3.85699 26.489 4.06299 26.494C4.24999 26.499 4.45499 26.319 4.45499 26.114C4.45499 25.865 4.32699 25.755 4.19399 25.755C4.03099 25.755 3.96599 25.821 3.96599 25.936C3.96599 26.017 4.00499 26.051 4.05999 26.051C4.19999 26.051 4.16099 25.863 4.16099 25.863C4.17962 25.8669 4.19717 25.8748 4.2124 25.8862C4.22763 25.8976 4.24017 25.9122 4.24914 25.929C4.2581 25.9458 4.26328 25.9644 4.26429 25.9834C4.2653 26.0024 4.26212 26.0214 4.25499 26.039C4.30736 26.05 4.35474 26.0777 4.38999 26.118C4.35398 26.1564 4.3067 26.1823 4.25499 26.192C4.28799 26.3 4.24399 26.353 4.14999 26.376C4.16619 26.3396 4.17073 26.2991 4.16299 26.26C4.01399 26.302 3.78599 26.236 3.78599 25.978C3.78599 25.722 3.96299 25.507 4.29599 25.56C4.21599 25.524 4.17699 25.447 4.16899 25.359C4.22899 25.384 4.29599 25.387 4.29599 25.387C4.25699 25.319 4.20299 25.26 4.20499 25.124C4.26699 25.153 4.32399 25.204 4.40299 25.171C4.27899 24.928 4.43099 24.594 4.81899 24.513C4.68728 24.6562 4.61226 24.8425 4.60799 25.037C4.60799 25.617 4.76999 25.713 4.76999 26.115C4.76731 26.2087 4.74254 26.3005 4.69771 26.3829C4.65288 26.4652 4.58925 26.5359 4.51199 26.589V26.582C4.62399 26.612 4.69699 26.669 4.73899 26.744C4.47999 26.817 4.10299 26.816 3.90199 26.737C3.81088 26.7238 3.72385 26.6905 3.64722 26.6395C3.5706 26.5884 3.5063 26.521 3.45899 26.442C3.41011 26.3293 3.38489 26.2078 3.38489 26.085C3.38489 25.9622 3.41011 25.8407 3.45899 25.728C3.61299 25.407 4.33899 23.868 4.56499 23.383C4.61484 23.2801 4.64115 23.1674 4.64199 23.053C4.64199 22.758 4.37099 22.654 4.21699 22.654C4.03199 22.654 3.84399 22.796 3.84399 22.97C3.84399 23.082 3.90499 23.148 3.99099 23.148C4.19999 23.148 4.18699 22.971 4.14499 22.859C4.27399 22.919 4.34999 23.021 4.32899 23.131C4.40299 23.141 4.47299 23.176 4.53699 23.248C4.48599 23.314 4.42399 23.362 4.32899 23.363C4.37099 23.533 4.25699 23.605 4.14499 23.644C4.17999 23.52 4.20299 23.375 3.99099 23.375C3.83599 23.375 3.71399 23.348 3.64299 23.247C3.63799 23.382 3.62499 23.912 3.62499 23.912C3.61699 24.112 3.89199 24.106 4.06699 24.047C3.99999 24.277 3.86499 24.402 3.54999 24.37C3.59823 24.3886 3.63943 24.4218 3.66778 24.4651C3.69612 24.5083 3.71019 24.5594 3.70799 24.611C3.70799 24.799 3.55599 25.006 3.45699 25.068L3.40699 23.12V23.12Z" fill="#FFCC4D"/>
<path d="M3.506 23.12C3.506 22.622 3.058 22.365 2.706 22.365C2.232 22.365 1.979 22.649 1.979 23.019C1.979 23.231 2.018 23.363 2.115 23.564L3.202 25.821C3.24145 25.9158 3.25855 26.0185 3.252 26.121C3.252 26.323 3.055 26.489 2.85 26.494C2.662 26.499 2.458 26.319 2.458 26.114C2.458 25.865 2.586 25.755 2.719 25.755C2.882 25.755 2.947 25.821 2.947 25.936C2.947 26.017 2.908 26.051 2.853 26.051C2.713 26.051 2.752 25.863 2.752 25.863C2.73337 25.8669 2.71582 25.8748 2.70059 25.8862C2.68536 25.8976 2.67282 25.9122 2.66385 25.929C2.65489 25.9458 2.64972 25.9644 2.64871 25.9834C2.6477 26.0024 2.65087 26.0214 2.658 26.039C2.60563 26.05 2.55826 26.0777 2.523 26.118C2.55901 26.1564 2.60629 26.1823 2.658 26.192C2.626 26.3 2.67 26.353 2.764 26.375C2.7478 26.3386 2.74326 26.2981 2.751 26.259C2.9 26.301 3.128 26.235 3.128 25.977C3.128 25.721 2.951 25.506 2.619 25.559C2.698 25.523 2.738 25.446 2.745 25.358C2.70468 25.3737 2.66219 25.3832 2.619 25.386C2.657 25.318 2.711 25.259 2.709 25.123C2.647 25.152 2.591 25.203 2.511 25.17C2.635 24.927 2.483 24.593 2.095 24.512C2.22672 24.6552 2.30173 24.8415 2.306 25.036C2.306 25.616 2.145 25.712 2.145 26.114C2.145 26.282 2.232 26.465 2.403 26.588V26.581C2.35593 26.5906 2.3114 26.61 2.2723 26.6379C2.23319 26.6658 2.20039 26.7016 2.176 26.743C2.435 26.816 2.811 26.815 3.013 26.736C3.10411 26.7228 3.19114 26.6895 3.26777 26.6385C3.3444 26.5874 3.4087 26.52 3.456 26.441C3.50488 26.3283 3.53011 26.2068 3.53011 26.084C3.53011 25.9612 3.50488 25.8397 3.456 25.727C3.302 25.406 2.576 23.867 2.35 23.382C2.30015 23.2791 2.27385 23.1664 2.273 23.052C2.273 22.757 2.544 22.653 2.698 22.653C2.883 22.653 3.071 22.795 3.071 22.969C3.071 23.081 3.01 23.147 2.924 23.147C2.715 23.147 2.728 22.97 2.769 22.858C2.64 22.918 2.564 23.02 2.585 23.13C2.50372 23.1423 2.42975 23.1839 2.377 23.247C2.428 23.313 2.49 23.361 2.585 23.362C2.543 23.532 2.657 23.604 2.769 23.643C2.734 23.519 2.711 23.374 2.924 23.374C3.079 23.374 3.201 23.347 3.272 23.246L3.29 23.911C3.298 24.111 3.022 24.105 2.847 24.046C2.913 24.275 3.049 24.4 3.363 24.368C3.31476 24.3866 3.27356 24.4198 3.24522 24.4631C3.21687 24.5063 3.2028 24.5573 3.205 24.609C3.205 24.797 3.356 25.004 3.456 25.066L3.506 23.12V23.12ZM3.457 28.522C3.457 28.522 3.694 28.719 3.774 28.62C3.903 28.46 3.377 27.661 3.377 27.379C3.377 26.918 3.686 26.79 4.066 26.725C4.322 26.681 4.738 26.744 4.738 26.744C4.659 26.849 4.609 26.882 4.477 26.888C4.56788 26.9359 4.64367 27.0081 4.69593 27.0966C4.74819 27.1851 4.77487 27.2863 4.773 27.389C4.773 27.785 4.609 27.949 4.609 28.398C4.609 28.647 4.813 28.963 4.813 28.963C4.453 28.927 4.273 28.594 4.375 28.326C4.34745 28.321 4.3191 28.3227 4.29231 28.3309C4.26553 28.339 4.24108 28.3535 4.221 28.373C4.195 28.3 4.237 28.213 4.292 28.14C4.247 28.117 4.214 28.131 4.143 28.145C4.15 28.069 4.195 27.989 4.307 27.913C3.983 27.996 3.784 27.771 3.784 27.535C3.784 27.355 3.909 27.227 4.032 27.227C4.072 27.227 4.13 27.244 4.163 27.268C4.186 27.22 4.174 27.154 4.15 27.105C4.24 27.128 4.296 27.181 4.256 27.293C4.28649 27.2936 4.31654 27.3004 4.34424 27.3132C4.37195 27.3259 4.39673 27.3442 4.417 27.367C4.39787 27.391 4.37327 27.4101 4.34526 27.4226C4.31725 27.4351 4.28664 27.4407 4.256 27.439C4.306 27.543 4.25 27.602 4.169 27.648C4.169 27.648 4.221 27.439 4.088 27.439C4.028 27.439 3.974 27.46 3.974 27.547C3.974 27.622 4.041 27.728 4.195 27.722C4.349 27.715 4.474 27.615 4.474 27.37C4.474 27.141 4.291 27.028 4.05 27.021C3.832 27.014 3.668 27.132 3.668 27.357C3.668 27.655 4.1 28.337 4.1 28.603C4.1 28.803 3.921 28.914 3.745 28.914C3.517 28.914 3.325 28.688 3.325 28.688L3.457 28.522V28.522ZM3.407 14.377C3.407 13.877 3.855 13.621 4.207 13.621C4.681 13.621 4.934 13.905 4.934 14.276C4.934 14.487 4.895 14.619 4.798 14.82L3.711 17.078C3.67116 17.1724 3.65371 17.2747 3.66 17.377C3.66 17.58 3.857 17.745 4.063 17.751C4.25 17.755 4.455 17.575 4.455 17.371C4.455 17.123 4.327 17.012 4.194 17.012C4.031 17.012 3.966 17.079 3.966 17.194C3.966 17.273 4.005 17.308 4.06 17.308C4.2 17.308 4.161 17.12 4.161 17.12C4.17947 17.1238 4.19689 17.1316 4.21203 17.1428C4.22716 17.1541 4.23965 17.1685 4.24861 17.1851C4.25757 17.2017 4.26279 17.22 4.2639 17.2388C4.265 17.2576 4.26196 17.2765 4.255 17.294C4.30742 17.3055 4.35476 17.3335 4.39 17.374C4.35384 17.4124 4.30667 17.4386 4.255 17.449C4.288 17.557 4.244 17.609 4.15 17.632C4.16627 17.5956 4.17081 17.5551 4.163 17.516C4.014 17.558 3.786 17.492 3.786 17.234C3.786 16.979 3.963 16.764 4.296 16.817C4.216 16.779 4.177 16.702 4.169 16.616C4.229 16.64 4.296 16.642 4.296 16.642C4.257 16.574 4.203 16.515 4.205 16.38C4.267 16.408 4.324 16.46 4.403 16.427C4.279 16.183 4.431 15.848 4.819 15.769C4.68761 15.9124 4.61264 16.0986 4.608 16.293C4.608 16.872 4.77 16.969 4.77 17.372C4.77 17.54 4.683 17.722 4.512 17.846V17.839C4.622 17.869 4.694 17.924 4.737 18C4.478 18.074 4.101 18.072 3.9 17.993C3.80896 17.9796 3.72201 17.9462 3.64542 17.8952C3.56882 17.8442 3.50447 17.7768 3.457 17.698C3.40811 17.5857 3.38288 17.4645 3.38288 17.342C3.38288 17.2195 3.40811 17.0983 3.457 16.986C3.611 16.664 4.337 15.125 4.563 14.64C4.61233 14.5369 4.6386 14.4243 4.64 14.31C4.64 14.014 4.369 13.91 4.215 13.91C4.03 13.91 3.842 14.051 3.842 14.225C3.842 14.337 3.903 14.404 3.989 14.404C4.198 14.404 4.185 14.226 4.143 14.115C4.272 14.173 4.348 14.277 4.327 14.387C4.401 14.397 4.471 14.431 4.535 14.505C4.484 14.569 4.422 14.617 4.327 14.619C4.369 14.79 4.255 14.862 4.143 14.901C4.178 14.777 4.201 14.633 3.989 14.633C3.834 14.633 3.712 14.606 3.641 14.506C3.636 14.64 3.623 15.171 3.623 15.171C3.615 15.37 3.89 15.365 4.065 15.305C4 15.535 3.865 15.659 3.55 15.627C3.59833 15.6458 3.63956 15.6792 3.6679 15.7226C3.69624 15.766 3.71026 15.8172 3.708 15.869C3.708 16.056 3.556 16.264 3.457 16.325L3.407 14.377V14.377Z" fill="#FFCC4D"/>
<path d="M3.506 14.377C3.506 13.877 3.058 13.621 2.706 13.621C2.232 13.621 1.979 13.905 1.979 14.276C1.979 14.487 2.018 14.619 2.115 14.82L3.202 17.078C3.24 17.157 3.252 17.246 3.252 17.377C3.252 17.58 3.055 17.745 2.85 17.751C2.662 17.755 2.458 17.575 2.458 17.371C2.458 17.123 2.586 17.012 2.719 17.012C2.882 17.012 2.947 17.079 2.947 17.194C2.947 17.273 2.908 17.308 2.853 17.308C2.713 17.308 2.752 17.12 2.752 17.12C2.73344 17.1236 2.71592 17.1313 2.70068 17.1425C2.68545 17.1537 2.67288 17.1682 2.6639 17.1848C2.65491 17.2014 2.64972 17.2199 2.6487 17.2387C2.64768 17.2576 2.65086 17.2765 2.658 17.294C2.60558 17.3055 2.55825 17.3335 2.523 17.374C2.55917 17.4124 2.60633 17.4386 2.658 17.449C2.626 17.557 2.669 17.609 2.763 17.632C2.74674 17.5956 2.74219 17.5551 2.75 17.516C2.899 17.558 3.127 17.492 3.127 17.234C3.127 16.979 2.95 16.764 2.618 16.817C2.697 16.779 2.737 16.702 2.744 16.616C2.684 16.64 2.618 16.642 2.618 16.642C2.656 16.574 2.71 16.515 2.708 16.38C2.646 16.408 2.59 16.46 2.51 16.427C2.634 16.183 2.482 15.848 2.094 15.769C2.2254 15.9124 2.30037 16.0986 2.305 16.293C2.305 16.872 2.144 16.969 2.144 17.372C2.144 17.54 2.231 17.722 2.402 17.846V17.839C2.291 17.869 2.218 17.924 2.177 18C2.436 18.074 2.812 18.072 3.014 17.993C3.10505 17.9796 3.19199 17.9462 3.26859 17.8952C3.34519 17.8442 3.40953 17.7768 3.457 17.698C3.50589 17.5857 3.53112 17.4645 3.53112 17.342C3.53112 17.2195 3.50589 17.0983 3.457 16.986C3.303 16.664 2.577 15.125 2.351 14.64C2.30123 14.5374 2.27493 14.425 2.274 14.311C2.274 14.015 2.545 13.911 2.699 13.911C2.884 13.911 3.072 14.052 3.072 14.226C3.072 14.338 3.011 14.405 2.925 14.405C2.716 14.405 2.729 14.227 2.77 14.116C2.641 14.174 2.565 14.278 2.586 14.388C2.50436 14.3999 2.43015 14.442 2.378 14.506C2.429 14.57 2.491 14.618 2.586 14.62C2.544 14.791 2.658 14.863 2.77 14.902C2.735 14.778 2.712 14.634 2.925 14.634C3.08 14.634 3.202 14.607 3.273 14.507L3.29 15.17C3.298 15.369 3.022 15.364 2.847 15.304C2.913 15.534 3.049 15.658 3.363 15.627C3.31468 15.6458 3.27345 15.6792 3.24511 15.7226C3.21677 15.766 3.20274 15.8172 3.205 15.869C3.205 16.056 3.356 16.264 3.456 16.325L3.506 14.377V14.377Z" fill="#FFCC4D"/>
<path d="M3.506 12.879C3.506 13.378 3.058 13.635 2.706 13.635C2.232 13.635 1.979 13.351 1.979 12.979C1.979 12.769 2.018 12.637 2.115 12.435L3.202 10.177C3.24143 10.0825 3.25854 9.98019 3.252 9.878C3.252 9.676 3.055 9.51 2.85 9.505C2.662 9.501 2.458 9.68 2.458 9.885C2.458 10.134 2.586 10.244 2.719 10.244C2.882 10.244 2.947 10.177 2.947 10.062C2.947 9.982 2.908 9.948 2.853 9.948C2.713 9.948 2.752 10.136 2.752 10.136C2.73341 10.1322 2.71587 10.1244 2.70064 10.1131C2.6854 10.1018 2.67285 10.0873 2.66387 10.0706C2.6549 10.0539 2.64972 10.0354 2.6487 10.0165C2.64769 9.99751 2.65086 9.97858 2.658 9.961C2.60536 9.9507 2.55776 9.92285 2.523 9.882C2.5595 9.84427 2.60656 9.81847 2.658 9.808C2.626 9.7 2.67 9.648 2.764 9.625C2.74773 9.66138 2.74319 9.70192 2.751 9.741C2.9 9.699 3.128 9.767 3.128 10.023C3.128 10.278 2.951 10.493 2.619 10.44C2.698 10.478 2.738 10.555 2.745 10.641C2.70443 10.6265 2.66201 10.6177 2.619 10.615C2.657 10.683 2.711 10.742 2.709 10.877C2.647 10.849 2.591 10.797 2.511 10.83C2.635 11.074 2.483 11.409 2.095 11.489C2.22639 11.3452 2.30133 11.1587 2.306 10.964C2.306 10.386 2.145 10.288 2.145 9.886C2.145 9.718 2.232 9.536 2.403 9.412V9.419C2.35605 9.4091 2.31168 9.38948 2.27276 9.36141C2.23384 9.33334 2.20122 9.29743 2.177 9.256C2.436 9.183 2.812 9.184 3.014 9.264C3.1052 9.27731 3.19229 9.31078 3.26892 9.36199C3.34555 9.41319 3.4098 9.48084 3.457 9.56C3.50595 9.6723 3.53121 9.79349 3.53121 9.916C3.53121 10.0385 3.50595 10.1597 3.457 10.272C3.303 10.594 2.577 12.133 2.351 12.617C2.30113 12.7196 2.27483 12.832 2.274 12.946C2.274 13.243 2.545 13.346 2.699 13.346C2.884 13.346 3.072 13.205 3.072 13.03C3.072 12.919 3.011 12.851 2.925 12.851C2.716 12.851 2.729 13.028 2.77 13.14C2.641 13.082 2.565 12.978 2.586 12.868C2.50448 12.8557 2.4304 12.8137 2.378 12.75C2.429 12.686 2.491 12.637 2.586 12.636C2.544 12.466 2.658 12.393 2.77 12.353C2.735 12.478 2.712 12.623 2.925 12.623C3.08 12.623 3.202 12.649 3.273 12.75L3.291 12.084C3.299 11.885 3.023 11.891 2.848 11.95C2.914 11.72 3.05 11.596 3.364 11.627C3.31568 11.6082 3.27445 11.5748 3.24611 11.5314C3.21777 11.488 3.20374 11.4368 3.206 11.385C3.206 11.198 3.357 10.99 3.457 10.929L3.506 12.879V12.879ZM3.506 21.623C3.506 22.122 3.058 22.378 2.706 22.378C2.232 22.378 1.979 22.095 1.979 21.724C1.97658 21.534 2.02343 21.3465 2.115 21.18L3.202 18.922C3.24143 18.8275 3.25854 18.7252 3.252 18.623C3.252 18.42 3.055 18.255 2.85 18.25C2.662 18.245 2.458 18.425 2.458 18.629C2.458 18.877 2.586 18.988 2.719 18.988C2.882 18.988 2.947 18.921 2.947 18.806C2.947 18.727 2.908 18.693 2.853 18.693C2.713 18.693 2.752 18.881 2.752 18.881C2.7335 18.8771 2.71607 18.8692 2.70093 18.8578C2.6858 18.8465 2.67332 18.832 2.66437 18.8153C2.65542 18.7987 2.65021 18.7802 2.64911 18.7614C2.64801 18.7425 2.65105 18.7236 2.658 18.706C2.60525 18.6954 2.55766 18.6672 2.523 18.626C2.55926 18.588 2.60643 18.5621 2.658 18.552C2.626 18.443 2.669 18.391 2.763 18.368C2.74673 18.4044 2.74219 18.4449 2.75 18.484C2.899 18.442 3.127 18.509 3.127 18.766C3.127 19.021 2.95 19.235 2.618 19.183C2.697 19.222 2.737 19.298 2.744 19.385C2.684 19.362 2.618 19.358 2.618 19.358C2.656 19.426 2.71 19.486 2.708 19.62C2.646 19.592 2.59 19.54 2.51 19.573C2.634 19.816 2.482 20.153 2.094 20.231C2.22556 20.0877 2.30054 19.9015 2.305 19.707C2.305 19.13 2.144 19.031 2.144 18.629C2.144 18.46 2.231 18.278 2.402 18.155V18.161C2.291 18.132 2.218 18.077 2.177 18C2.436 17.927 2.812 17.928 3.014 18.008C3.10505 18.0214 3.19199 18.0548 3.26859 18.1058C3.34519 18.1568 3.40953 18.2242 3.457 18.303C3.50589 18.4153 3.53112 18.5365 3.53112 18.659C3.53112 18.7815 3.50589 18.9027 3.457 19.015C3.303 19.337 2.577 20.876 2.351 21.361C2.30101 21.4635 2.27469 21.576 2.274 21.69C2.274 21.986 2.545 22.089 2.699 22.089C2.884 22.089 3.072 21.948 3.072 21.773C3.072 21.664 3.011 21.596 2.925 21.596C2.716 21.596 2.729 21.773 2.77 21.884C2.641 21.826 2.565 21.721 2.586 21.612C2.5044 21.6006 2.43012 21.5588 2.378 21.495C2.40171 21.4613 2.43275 21.4335 2.46878 21.4136C2.50481 21.3937 2.54489 21.3822 2.586 21.38C2.544 21.21 2.658 21.139 2.77 21.099C2.735 21.224 2.712 21.368 2.925 21.368C3.08 21.368 3.202 21.394 3.273 21.496L3.291 20.83C3.299 20.632 3.023 20.637 2.848 20.696C2.914 20.467 3.05 20.343 3.364 20.374C3.31568 20.3552 3.27445 20.3218 3.24611 20.2784C3.21777 20.235 3.20374 20.1838 3.206 20.132C3.206 19.945 3.357 19.738 3.457 19.676L3.506 21.623V21.623Z" fill="#FFCC4D"/>
<path d="M3.40701 21.623C3.40701 22.122 3.85501 22.378 4.20701 22.378C4.68101 22.378 4.93401 22.095 4.93401 21.724C4.93643 21.534 4.88957 21.3465 4.79801 21.18L3.71101 18.922C3.67116 18.8276 3.65371 18.7253 3.66001 18.623C3.66001 18.42 3.85701 18.255 4.06301 18.25C4.25001 18.245 4.45501 18.425 4.45501 18.629C4.45501 18.877 4.32701 18.988 4.19401 18.988C4.03101 18.988 3.96601 18.921 3.96601 18.806C3.96601 18.727 4.00501 18.693 4.06001 18.693C4.20001 18.693 4.16101 18.881 4.16101 18.881C4.17951 18.8771 4.19694 18.8692 4.21208 18.8578C4.22721 18.8465 4.23969 18.832 4.24864 18.8153C4.25759 18.7987 4.2628 18.7803 4.2639 18.7614C4.265 18.7425 4.26196 18.7236 4.25501 18.706C4.30776 18.6954 4.35534 18.6672 4.39001 18.626C4.35374 18.588 4.30658 18.5621 4.25501 18.552C4.28801 18.443 4.24401 18.391 4.15001 18.368C4.16901 18.41 4.16901 18.448 4.16301 18.484C4.01401 18.442 3.78601 18.509 3.78601 18.766C3.78601 19.021 3.96301 19.235 4.29601 19.183C4.21601 19.222 4.17701 19.298 4.16901 19.385C4.22901 19.362 4.29601 19.358 4.29601 19.358C4.25701 19.426 4.20301 19.486 4.20501 19.62C4.26701 19.592 4.32401 19.54 4.40301 19.573C4.27901 19.816 4.43101 20.153 4.81901 20.231C4.68745 20.0877 4.61246 19.9015 4.60801 19.707C4.60801 19.13 4.77001 19.031 4.77001 18.629C4.76748 18.5352 4.74279 18.4434 4.69794 18.361C4.6531 18.2786 4.58938 18.208 4.51201 18.155V18.161C4.55912 18.1515 4.6037 18.1322 4.64282 18.1043C4.68194 18.0764 4.71472 18.0405 4.73901 17.999C4.48001 17.926 4.10301 17.927 3.90201 18.007C3.81096 18.0204 3.72401 18.0538 3.64742 18.1048C3.57082 18.1558 3.50647 18.2232 3.45901 18.302C3.41012 18.4143 3.38489 18.5355 3.38489 18.658C3.38489 18.7805 3.41012 18.9017 3.45901 19.014C3.61301 19.336 4.33901 20.875 4.56501 21.36C4.61301 21.462 4.64201 21.57 4.64201 21.689C4.64201 21.985 4.37101 22.088 4.21701 22.088C4.03201 22.088 3.84401 21.947 3.84401 21.772C3.84401 21.663 3.90501 21.595 3.99101 21.595C4.20001 21.595 4.18701 21.772 4.14501 21.883C4.27401 21.825 4.35001 21.72 4.32901 21.611C4.41073 21.6 4.48515 21.5581 4.53701 21.494C4.5133 21.4603 4.48226 21.4325 4.44623 21.4126C4.4102 21.3927 4.37012 21.3812 4.32901 21.379C4.37101 21.209 4.25701 21.138 4.14501 21.098C4.18001 21.223 4.20301 21.367 3.99101 21.367C3.83601 21.367 3.71401 21.393 3.64301 21.495C3.63801 21.361 3.62501 20.829 3.62501 20.829C3.61701 20.631 3.89201 20.636 4.06701 20.695C4.00001 20.466 3.86501 20.342 3.55001 20.373C3.59833 20.3542 3.63956 20.3208 3.6679 20.2774C3.69624 20.234 3.71027 20.1828 3.70801 20.131C3.70801 19.944 3.55601 19.737 3.45701 19.675L3.40701 21.623V21.623ZM3.45701 7.479C3.45701 7.479 3.69401 7.28 3.77401 7.379C3.90301 7.54 3.37701 8.339 3.37701 8.621C3.37701 9.083 3.68601 9.208 4.06601 9.274C4.32201 9.319 4.73801 9.256 4.73801 9.256C4.65801 9.151 4.60801 9.12 4.47601 9.112C4.56695 9.06468 4.64285 8.99288 4.69515 8.90471C4.74746 8.81654 4.77408 8.7155 4.77201 8.613C4.77201 8.215 4.60801 8.051 4.60801 7.603C4.60801 7.354 4.81201 7.037 4.81201 7.037C4.45201 7.074 4.27201 7.407 4.37401 7.674C4.3466 7.67907 4.31838 7.67744 4.29174 7.66926C4.2651 7.66108 4.24084 7.64658 4.22101 7.627C4.19501 7.701 4.23701 7.787 4.29201 7.861C4.24701 7.885 4.21401 7.87 4.14301 7.855C4.15001 7.932 4.19501 8.012 4.30701 8.088C3.98201 8.004 3.78301 8.23 3.78301 8.467C3.78301 8.646 3.90801 8.773 4.03101 8.773C4.07101 8.773 4.12901 8.757 4.16201 8.732C4.18501 8.781 4.17301 8.847 4.14901 8.896C4.23901 8.873 4.29501 8.819 4.25501 8.708C4.31632 8.7055 4.37418 8.67891 4.41601 8.634C4.39666 8.60993 4.37191 8.59078 4.34375 8.57809C4.3156 8.5654 4.28485 8.55955 4.25401 8.561C4.30401 8.457 4.24801 8.399 4.16701 8.353C4.16701 8.353 4.21901 8.561 4.08601 8.561C4.02601 8.561 3.97201 8.541 3.97201 8.454C3.97201 8.378 4.03901 8.272 4.19301 8.279C4.34701 8.285 4.47201 8.385 4.47201 8.632C4.47201 8.859 4.28901 8.971 4.04801 8.979C3.83101 8.985 3.66701 8.867 3.66701 8.643C3.66701 8.344 4.09901 7.664 4.09901 7.397C4.09901 7.197 3.92001 7.085 3.74401 7.085C3.51601 7.085 3.32401 7.311 3.32401 7.311L3.45701 7.479V7.479Z" fill="#FFCC4D"/>
<path d="M3.45701 7.479C3.45701 7.479 3.22001 7.28 3.14001 7.379C3.01001 7.541 3.53701 8.34 3.53701 8.622C3.53701 9.084 3.22801 9.209 2.84801 9.275C2.59201 9.319 2.17701 9.256 2.17701 9.256C2.25501 9.151 2.30601 9.12 2.43801 9.112C2.34681 9.06491 2.27064 8.99319 2.21814 8.90498C2.16564 8.81678 2.13892 8.71563 2.14101 8.613C2.14101 8.215 2.30501 8.051 2.30501 7.603C2.30501 7.354 2.10101 7.037 2.10101 7.037C2.46101 7.074 2.64101 7.407 2.53901 7.674C2.56657 7.6789 2.5949 7.6772 2.62167 7.66903C2.64844 7.66086 2.67289 7.64645 2.69301 7.627C2.71901 7.701 2.67801 7.787 2.62201 7.861C2.66601 7.885 2.69901 7.87 2.77101 7.855C2.76401 7.932 2.71801 8.012 2.60701 8.088C2.93101 8.004 3.13001 8.23 3.13001 8.467C3.13001 8.646 3.00501 8.773 2.88201 8.773C2.83535 8.77199 2.78993 8.75777 2.75101 8.732C2.72901 8.782 2.74101 8.847 2.76401 8.896C2.67501 8.873 2.61901 8.819 2.65901 8.709C2.62862 8.70793 2.59874 8.70083 2.5711 8.68813C2.54347 8.67543 2.51862 8.65737 2.49801 8.635C2.51704 8.61077 2.54157 8.59142 2.56957 8.57855C2.59757 8.56568 2.62823 8.55966 2.65901 8.561C2.60901 8.457 2.66501 8.399 2.74601 8.353C2.74601 8.353 2.69401 8.561 2.82701 8.561C2.88701 8.561 2.94101 8.541 2.94101 8.454C2.94101 8.378 2.87401 8.272 2.72001 8.279C2.56501 8.285 2.44001 8.385 2.44001 8.631C2.44001 8.858 2.62301 8.97 2.86401 8.978C3.08201 8.984 3.24601 8.867 3.24601 8.642C3.24601 8.343 2.81401 7.663 2.81401 7.396C2.81401 7.196 2.99301 7.084 3.16901 7.084C3.39701 7.084 3.58901 7.31 3.58901 7.31L3.45701 7.479V7.479ZM3.40701 12.879C3.40701 13.378 3.85501 13.635 4.20701 13.635C4.68101 13.635 4.93401 13.351 4.93401 12.979C4.93401 12.769 4.89501 12.637 4.79801 12.435L3.71101 10.177C3.67187 10.0828 3.65477 9.98085 3.66101 9.879C3.66101 9.677 3.85801 9.511 4.06401 9.506C4.25101 9.502 4.45601 9.681 4.45601 9.886C4.45601 10.135 4.32801 10.245 4.19501 10.245C4.03201 10.245 3.96701 10.178 3.96701 10.063C3.96701 9.983 4.00601 9.949 4.06101 9.949C4.20101 9.949 4.16201 10.137 4.16201 10.137C4.18052 10.1331 4.19795 10.1252 4.21308 10.1138C4.22822 10.1025 4.2407 10.088 4.24965 10.0713C4.2586 10.0547 4.26381 10.0363 4.2649 10.0174C4.266 9.99849 4.26297 9.97959 4.25601 9.962C4.30829 9.95087 4.35541 9.92274 4.39001 9.882C4.35325 9.8441 4.30581 9.81829 4.25401 9.808C4.28701 9.7 4.24301 9.648 4.14901 9.625C4.16801 9.667 4.16801 9.705 4.16201 9.741C4.01301 9.699 3.78501 9.766 3.78501 10.023C3.78501 10.278 3.96201 10.493 4.29501 10.44C4.21501 10.478 4.17601 10.555 4.16801 10.641C4.20892 10.6264 4.25167 10.6177 4.29501 10.615C4.25601 10.683 4.20201 10.742 4.20401 10.877C4.26601 10.849 4.32301 10.797 4.40201 10.83C4.27801 11.074 4.43001 11.409 4.81801 11.489C4.68662 11.3452 4.61168 11.1587 4.60701 10.964C4.60701 10.386 4.76901 10.288 4.76901 9.886C4.76625 9.79228 4.74145 9.70054 4.69663 9.61819C4.65181 9.53584 4.58822 9.4652 4.51101 9.412V9.419C4.55804 9.40894 4.60248 9.38926 4.64154 9.36122C4.6806 9.33317 4.71345 9.29735 4.73801 9.256C4.47801 9.184 4.10101 9.185 3.89901 9.265C3.80797 9.278 3.721 9.31125 3.64451 9.3623C3.56801 9.41335 3.50394 9.48091 3.45701 9.56C3.40807 9.67231 3.3828 9.7935 3.3828 9.916C3.3828 10.0385 3.40807 10.1597 3.45701 10.272C3.61101 10.594 4.33701 12.133 4.56301 12.617C4.6122 12.7198 4.63847 12.8321 4.64001 12.946C4.64001 13.243 4.36901 13.346 4.21501 13.346C4.03001 13.346 3.84201 13.205 3.84201 13.03C3.84201 12.919 3.90301 12.851 3.98901 12.851C4.19801 12.851 4.18501 13.028 4.14301 13.14C4.27201 13.082 4.34801 12.978 4.32701 12.868C4.40869 12.8562 4.48294 12.814 4.53501 12.75C4.48401 12.686 4.42201 12.637 4.32701 12.636C4.36901 12.466 4.25501 12.393 4.14301 12.353C4.17801 12.478 4.20101 12.623 3.98901 12.623C3.83401 12.623 3.71201 12.649 3.64101 12.75C3.63601 12.616 3.62301 12.084 3.62301 12.084C3.61501 11.885 3.89001 11.891 4.06501 11.95C4.00001 11.722 3.86501 11.598 3.55001 11.629C3.59834 11.6102 3.63957 11.5768 3.66791 11.5334C3.69625 11.49 3.71027 11.4388 3.70801 11.387C3.70801 11.2 3.55601 10.992 3.45701 10.931L3.40701 12.879V12.879Z" fill="#FFCC4D"/>
</svg>
