<svg width="43" height="43" viewBox="0 0 43 43" fill="none" xmlns="http://www.w3.org/2000/svg">
<g clip-path="url(#clip0)">
<path d="M11.3652 36.8277L12.0682 37.1751C14.9976 38.9122 18.2782 39.7229 21.5589 39.7229C31.8697 39.7229 40.3058 31.3846 40.3058 21.1933C40.3058 16.3293 38.3138 11.581 34.7989 8.10664C31.2838 4.63228 26.597 2.66357 21.5589 2.66357C11.2482 2.66357 2.81194 11.0019 2.92919 21.3091C2.92919 24.7833 3.98369 28.142 5.74115 31.0371L6.20978 31.7321L4.33525 38.5649L11.3652 36.8277Z" fill="#00E676"/>
<path d="M36.7907 6.25376C32.807 2.20047 27.3001 0 21.676 0C9.72505 0 0.117242 9.61224 0.234316 21.3091C0.234316 25.015 1.28882 28.6053 3.04645 31.8479L0 42.8499L11.3653 39.9546C14.5288 41.6919 18.0437 42.5026 21.559 42.5026C33.3929 42.5026 43.0007 32.8902 43.0007 21.1935C43.0007 15.5187 40.7744 10.1913 36.7909 6.25376H36.7907ZM21.676 38.9125C18.5125 38.9125 15.349 38.102 12.6541 36.4806L11.9511 36.1331L5.15547 37.8702L6.91292 31.2691L6.44429 30.5742C1.28882 22.3517 3.7494 11.4652 12.1855 6.36948C20.6215 1.2739 31.5182 3.70597 36.6736 12.0443C41.8289 20.3827 39.3683 31.1531 30.9325 36.2488C28.2374 37.9859 24.9568 38.9123 21.676 38.9123V38.9125ZM31.9868 26.0577L30.698 25.4786C30.698 25.4786 28.8234 24.6679 27.6517 24.0888C27.5344 24.0888 27.4174 23.9729 27.3001 23.9729C26.9486 23.9729 26.7143 24.0888 26.4799 24.2047C26.4799 24.2047 26.3629 24.3204 24.7225 26.1734C24.6052 26.405 24.3709 26.5209 24.1366 26.5209H24.0194C23.9023 26.5209 23.668 26.405 23.5507 26.2893L22.9649 26.0577C21.676 25.4786 20.5044 24.7836 19.567 23.8572C19.3327 23.6256 18.9811 23.394 18.7468 23.1624C17.9266 22.3517 17.1064 21.4251 16.5207 20.3828L16.4035 20.1512C16.2864 20.0353 16.2864 19.9196 16.1692 19.688C16.1692 19.4564 16.1692 19.2248 16.2864 19.1089C16.2864 19.1089 16.7551 18.5298 17.1064 18.1825C17.3409 17.9508 17.458 17.6034 17.6923 17.3718C17.9266 17.0243 18.0439 16.5611 17.9266 16.2137C17.8096 15.6346 16.4035 12.5077 16.0521 11.8129C15.8176 11.4654 15.5835 11.3497 15.2319 11.2338H13.9431C13.7086 11.2338 13.4745 11.3497 13.24 11.3497L13.1227 11.4654C12.8884 11.5813 12.6541 11.8129 12.4198 11.9286C12.1855 12.1604 12.0682 12.3918 11.8339 12.6236C11.0137 13.6659 10.5451 14.9398 10.5451 16.2137C10.5451 17.1401 10.7794 18.0666 11.131 18.8773L11.2482 19.2248C12.3027 21.4251 13.7086 23.394 15.5835 25.1311L16.0521 25.5943C16.4035 25.9418 16.7551 26.1734 16.9894 26.5207C19.4499 28.6055 22.2619 30.111 25.4254 30.9216C25.777 31.0374 26.2456 31.0374 26.5972 31.1532H27.7688C28.3546 31.1532 29.0576 30.9216 29.5264 30.69C29.8778 30.4584 30.1121 30.4584 30.3464 30.2268L30.5809 29.9951C30.8152 29.7635 31.0495 29.6478 31.2838 29.4162C31.5182 29.1845 31.7525 28.9529 31.8697 28.7212C32.104 28.258 32.2211 27.6789 32.3384 27.1V26.2893C32.3384 26.2893 32.2211 26.1734 31.9868 26.0577Z" fill="white"/>
</g>
<defs>
<clipPath id="clip0">
<rect width="43" height="43" fill="white"/>
</clipPath>
</defs>
</svg>
