<svg width="254" height="52" viewBox="0 0 254 52" fill="none" xmlns="http://www.w3.org/2000/svg">
<g filter="url(#filter0_d)">
<path d="M0 50C0 22.3858 22.3858 0 50 0H252C252 27.6142 229.614 50 202 50H0Z" fill="white"/>
</g>
<path d="M73.1255 27.5552C73.1255 29.2642 72.7358 30.6348 71.9565 31.667C71.1841 32.6924 70.1382 33.2051 68.8188 33.2051C67.6978 33.2051 66.792 32.8154 66.1016 32.0361V37.2656H63.1382V21.9053H65.8862L65.9888 22.9922C66.7065 22.1309 67.6431 21.7002 68.7983 21.7002C70.1655 21.7002 71.2285 22.2061 71.9873 23.2178C72.7461 24.2295 73.1255 25.624 73.1255 27.4014V27.5552ZM70.1621 27.3398C70.1621 26.3076 69.9775 25.5112 69.6084 24.9507C69.2461 24.3901 68.7163 24.1099 68.019 24.1099C67.0894 24.1099 66.4502 24.4653 66.1016 25.1763V29.7188C66.4639 30.4502 67.1099 30.8159 68.0396 30.8159C69.4546 30.8159 70.1621 29.6572 70.1621 27.3398ZM74.5098 27.3501C74.5098 26.2495 74.7217 25.2686 75.1455 24.4072C75.5693 23.5459 76.1777 22.8794 76.9707 22.4077C77.7705 21.936 78.6968 21.7002 79.7495 21.7002C81.2466 21.7002 82.4668 22.1582 83.4102 23.0742C84.3604 23.9902 84.8901 25.2344 84.9995 26.8066L85.02 27.5654C85.02 29.2676 84.5449 30.6348 83.5947 31.667C82.6445 32.6924 81.3696 33.2051 79.77 33.2051C78.1704 33.2051 76.8921 32.6924 75.9351 31.667C74.9849 30.6416 74.5098 29.2471 74.5098 27.4834V27.3501ZM77.4731 27.5654C77.4731 28.6182 77.6714 29.4248 78.0679 29.9854C78.4644 30.5391 79.0317 30.8159 79.77 30.8159C80.4878 30.8159 81.0483 30.5425 81.4517 29.9956C81.855 29.4419 82.0566 28.5601 82.0566 27.3501C82.0566 26.3179 81.855 25.5181 81.4517 24.9507C81.0483 24.3833 80.481 24.0996 79.7495 24.0996C79.0249 24.0996 78.4644 24.3833 78.0679 24.9507C77.6714 25.5112 77.4731 26.3828 77.4731 27.5654ZM92.854 29.9341C92.854 29.5718 92.6729 29.2881 92.3105 29.083C91.9551 28.8711 91.3809 28.6831 90.5879 28.519C87.9492 27.9653 86.6299 26.8442 86.6299 25.1558C86.6299 24.1714 87.0366 23.3511 87.8501 22.6948C88.6704 22.0317 89.7402 21.7002 91.0596 21.7002C92.4678 21.7002 93.5923 22.0317 94.4331 22.6948C95.2808 23.3579 95.7046 24.2192 95.7046 25.2788H92.7412C92.7412 24.855 92.6045 24.5063 92.3311 24.2329C92.0576 23.9526 91.6304 23.8125 91.0493 23.8125C90.5503 23.8125 90.1641 23.9253 89.8906 24.1509C89.6172 24.3765 89.4805 24.6636 89.4805 25.0122C89.4805 25.3403 89.6343 25.6069 89.9419 25.812C90.2563 26.0103 90.7827 26.1846 91.521 26.335C92.2593 26.4785 92.8813 26.6426 93.3872 26.8271C94.9526 27.4014 95.7354 28.396 95.7354 29.811C95.7354 30.8228 95.3013 31.6431 94.4331 32.272C93.5649 32.894 92.4438 33.2051 91.0698 33.2051C90.1401 33.2051 89.313 33.041 88.5884 32.7129C87.8706 32.3779 87.3066 31.9233 86.8965 31.3491C86.4863 30.7681 86.2812 30.1426 86.2812 29.4727H89.0908C89.1182 29.999 89.313 30.4023 89.6753 30.6826C90.0376 30.9629 90.5229 31.103 91.1313 31.103C91.6987 31.103 92.126 30.9971 92.4131 30.7852C92.707 30.5664 92.854 30.2827 92.854 29.9341ZM101.201 19.1777V21.9053H103.098V24.0791H101.201V29.6162C101.201 30.0264 101.279 30.3203 101.437 30.498C101.594 30.6758 101.895 30.7646 102.339 30.7646C102.667 30.7646 102.958 30.7407 103.21 30.6929V32.9385C102.629 33.1162 102.031 33.2051 101.416 33.2051C99.3379 33.2051 98.2783 32.1558 98.2373 30.0571V24.0791H96.6172V21.9053H98.2373V19.1777H101.201ZM104.287 27.3706C104.287 25.6411 104.673 24.2637 105.446 23.2383C106.225 22.2129 107.288 21.7002 108.635 21.7002C109.715 21.7002 110.607 22.1035 111.311 22.9102V17.25H114.285V33H111.608L111.465 31.8208C110.727 32.7437 109.776 33.2051 108.614 33.2051C107.309 33.2051 106.259 32.6924 105.466 31.667C104.68 30.6348 104.287 29.2026 104.287 27.3706ZM107.25 27.5859C107.25 28.625 107.432 29.4214 107.794 29.9751C108.156 30.5288 108.683 30.8057 109.373 30.8057C110.289 30.8057 110.935 30.4194 111.311 29.647V25.2686C110.942 24.4961 110.303 24.1099 109.394 24.1099C107.965 24.1099 107.25 25.2686 107.25 27.5859ZM116.12 27.3501C116.12 26.2495 116.332 25.2686 116.756 24.4072C117.18 23.5459 117.788 22.8794 118.581 22.4077C119.381 21.936 120.307 21.7002 121.36 21.7002C122.857 21.7002 124.077 22.1582 125.021 23.0742C125.971 23.9902 126.5 25.2344 126.61 26.8066L126.63 27.5654C126.63 29.2676 126.155 30.6348 125.205 31.667C124.255 32.6924 122.98 33.2051 121.38 33.2051C119.781 33.2051 118.502 32.6924 117.545 31.667C116.595 30.6416 116.12 29.2471 116.12 27.4834V27.3501ZM119.083 27.5654C119.083 28.6182 119.282 29.4248 119.678 29.9854C120.075 30.5391 120.642 30.8159 121.38 30.8159C122.098 30.8159 122.659 30.5425 123.062 29.9956C123.465 29.4419 123.667 28.5601 123.667 27.3501C123.667 26.3179 123.465 25.5181 123.062 24.9507C122.659 24.3833 122.091 24.0996 121.36 24.0996C120.635 24.0996 120.075 24.3833 119.678 24.9507C119.282 25.5112 119.083 26.3828 119.083 27.5654ZM134.464 29.9341C134.464 29.5718 134.283 29.2881 133.921 29.083C133.565 28.8711 132.991 28.6831 132.198 28.519C129.56 27.9653 128.24 26.8442 128.24 25.1558C128.24 24.1714 128.647 23.3511 129.46 22.6948C130.281 22.0317 131.351 21.7002 132.67 21.7002C134.078 21.7002 135.203 22.0317 136.043 22.6948C136.891 23.3579 137.315 24.2192 137.315 25.2788H134.352C134.352 24.855 134.215 24.5063 133.941 24.2329C133.668 23.9526 133.241 23.8125 132.66 23.8125C132.161 23.8125 131.774 23.9253 131.501 24.1509C131.228 24.3765 131.091 24.6636 131.091 25.0122C131.091 25.3403 131.245 25.6069 131.552 25.812C131.867 26.0103 132.393 26.1846 133.131 26.335C133.87 26.4785 134.492 26.6426 134.998 26.8271C136.563 27.4014 137.346 28.396 137.346 29.811C137.346 30.8228 136.912 31.6431 136.043 32.272C135.175 32.894 134.054 33.2051 132.68 33.2051C131.75 33.2051 130.923 33.041 130.199 32.7129C129.481 32.3779 128.917 31.9233 128.507 31.3491C128.097 30.7681 127.892 30.1426 127.892 29.4727H130.701C130.729 29.999 130.923 30.4023 131.286 30.6826C131.648 30.9629 132.133 31.103 132.742 31.103C133.309 31.103 133.736 30.9971 134.023 30.7852C134.317 30.5664 134.464 30.2827 134.464 29.9341ZM142.811 19.1777V21.9053H144.708V24.0791H142.811V29.6162C142.811 30.0264 142.89 30.3203 143.047 30.498C143.204 30.6758 143.505 30.7646 143.949 30.7646C144.277 30.7646 144.568 30.7407 144.821 30.6929V32.9385C144.24 33.1162 143.642 33.2051 143.026 33.2051C140.948 33.2051 139.889 32.1558 139.848 30.0571V24.0791H138.228V21.9053H139.848V19.1777H142.811ZM152.788 33C152.651 32.7334 152.552 32.4019 152.491 32.0054C151.773 32.8052 150.84 33.2051 149.691 33.2051C148.604 33.2051 147.702 32.8906 146.984 32.2617C146.273 31.6328 145.918 30.8398 145.918 29.8828C145.918 28.707 146.352 27.8047 147.22 27.1758C148.095 26.5469 149.356 26.229 151.004 26.2222H152.368V25.5864C152.368 25.0737 152.234 24.6636 151.968 24.356C151.708 24.0483 151.294 23.8945 150.727 23.8945C150.228 23.8945 149.835 24.0142 149.548 24.2534C149.268 24.4927 149.127 24.8208 149.127 25.2378H146.164C146.164 24.5952 146.362 24.0005 146.759 23.4536C147.155 22.9067 147.716 22.4795 148.44 22.1719C149.165 21.8574 149.979 21.7002 150.881 21.7002C152.248 21.7002 153.332 22.0454 154.131 22.7358C154.938 23.4194 155.341 24.3833 155.341 25.6274V30.4365C155.348 31.4893 155.495 32.2856 155.782 32.8257V33H152.788ZM150.337 30.939C150.775 30.939 151.178 30.8433 151.547 30.6519C151.917 30.4536 152.19 30.1904 152.368 29.8623V27.9551H151.26C149.777 27.9551 148.987 28.4678 148.892 29.4932L148.881 29.6675C148.881 30.0366 149.011 30.3408 149.271 30.5801C149.531 30.8193 149.886 30.939 150.337 30.939ZM161.606 29.3804L163.667 21.9053H166.764L163.021 33H160.191L156.449 21.9053H159.545L161.606 29.3804ZM172.106 28.5498L171.04 29.6162V33H168.077V17.25H171.04V25.9761L171.614 25.2378L174.455 21.9053H178.013L174.003 26.5298L178.361 33H174.957L172.106 28.5498ZM185.724 33C185.587 32.7334 185.488 32.4019 185.426 32.0054C184.708 32.8052 183.775 33.2051 182.627 33.2051C181.54 33.2051 180.638 32.8906 179.92 32.2617C179.209 31.6328 178.854 30.8398 178.854 29.8828C178.854 28.707 179.288 27.8047 180.156 27.1758C181.031 26.5469 182.292 26.229 183.939 26.2222H185.303V25.5864C185.303 25.0737 185.17 24.6636 184.903 24.356C184.644 24.0483 184.23 23.8945 183.663 23.8945C183.164 23.8945 182.771 24.0142 182.483 24.2534C182.203 24.4927 182.063 24.8208 182.063 25.2378H179.1C179.1 24.5952 179.298 24.0005 179.694 23.4536C180.091 22.9067 180.651 22.4795 181.376 22.1719C182.101 21.8574 182.914 21.7002 183.816 21.7002C185.184 21.7002 186.267 22.0454 187.067 22.7358C187.874 23.4194 188.277 24.3833 188.277 25.6274V30.4365C188.284 31.4893 188.431 32.2856 188.718 32.8257V33H185.724ZM183.273 30.939C183.71 30.939 184.114 30.8433 184.483 30.6519C184.852 30.4536 185.125 30.1904 185.303 29.8623V27.9551H184.196C182.712 27.9551 181.923 28.4678 181.827 29.4932L181.817 29.6675C181.817 30.0366 181.947 30.3408 182.207 30.5801C182.466 30.8193 182.822 30.939 183.273 30.939ZM190.707 31.5439C190.707 31.0723 190.864 30.6895 191.179 30.3955C191.5 30.1016 191.9 29.9546 192.378 29.9546C192.864 29.9546 193.264 30.1016 193.578 30.3955C193.899 30.6895 194.06 31.0723 194.06 31.5439C194.06 32.0088 193.903 32.3882 193.588 32.6821C193.274 32.9692 192.871 33.1128 192.378 33.1128C191.893 33.1128 191.493 32.9692 191.179 32.6821C190.864 32.3882 190.707 32.0088 190.707 31.5439ZM201.771 33.2051C200.144 33.2051 198.818 32.7061 197.792 31.708C196.774 30.71 196.265 29.3804 196.265 27.7192V27.4321C196.265 26.3179 196.48 25.3232 196.911 24.4482C197.341 23.5664 197.95 22.8896 198.736 22.418C199.529 21.9395 200.431 21.7002 201.443 21.7002C202.96 21.7002 204.153 22.1787 205.021 23.1357C205.896 24.0928 206.334 25.4497 206.334 27.2065V28.4165H199.269C199.365 29.1411 199.652 29.7222 200.13 30.1597C200.616 30.5972 201.228 30.8159 201.966 30.8159C203.107 30.8159 204 30.4023 204.642 29.5752L206.098 31.2056C205.654 31.8345 205.052 32.3267 204.293 32.6821C203.535 33.0308 202.694 33.2051 201.771 33.2051ZM201.433 24.0996C200.845 24.0996 200.366 24.2979 199.997 24.6943C199.635 25.0908 199.402 25.6582 199.3 26.3965H203.422V26.1606C203.408 25.5044 203.23 24.9985 202.889 24.6431C202.547 24.2808 202.062 24.0996 201.433 24.0996ZM214.67 31.8721C213.939 32.7607 212.927 33.2051 211.635 33.2051C210.446 33.2051 209.537 32.8633 208.908 32.1797C208.286 31.4961 207.968 30.4946 207.954 29.1753V21.9053H210.917V29.0728C210.917 30.228 211.444 30.8057 212.497 30.8057C213.501 30.8057 214.192 30.457 214.568 29.7598V21.9053H217.542V33H214.752L214.67 31.8721Z" fill="#0055A5"/>
<path d="M53.482 18.624L43.482 13.124C43.3343 13.0428 43.1685 13.0002 43 13.0002C42.8315 13.0002 42.6657 13.0428 42.518 13.124L32.518 18.624C32.3612 18.7103 32.2305 18.8371 32.1394 18.9912C32.0483 19.1453 32.0003 19.321 32.0003 19.5C32.0003 19.679 32.0483 19.8547 32.1394 20.0088C32.2305 20.1629 32.3612 20.2897 32.518 20.376L42 25.591V36.31L38.964 34.64L38 36.391L42.518 38.876C42.6656 38.9574 42.8314 39.0001 43 39.0001C43.1686 39.0001 43.3344 38.9574 43.482 38.876L53.482 33.376C53.6388 33.2897 53.7696 33.1629 53.8608 33.0088C53.9519 32.8547 54 32.679 54 32.5V19.5C54 19.321 53.9519 19.1453 53.8608 18.9912C53.7696 18.8371 53.6388 18.7103 53.482 18.624ZM43 15.142L50.925 19.5L43 23.858L35.075 19.5L43 15.142ZM52 31.909L44 36.309V25.59L52 21.19V31.909Z" fill="#0055A5"/>
<path d="M34 26H26V24H34V26Z" fill="#0055A5"/>
<path d="M36 34H28V32H36V34Z" fill="#0055A5"/>
<path d="M38 30H30V28H38V30Z" fill="#0055A5"/>
<defs>
<filter id="filter0_d" x="0" y="0" width="254" height="52" filterUnits="userSpaceOnUse" color-interpolation-filters="sRGB">
<feFlood flood-opacity="0" result="BackgroundImageFix"/>
<feColorMatrix in="SourceAlpha" type="matrix" values="0 0 0 0 0 0 0 0 0 0 0 0 0 0 0 0 0 0 127 0"/>
<feOffset dx="2" dy="2"/>
<feColorMatrix type="matrix" values="0 0 0 0 0 0 0 0 0 0 0 0 0 0 0 0 0 0 0.25 0"/>
<feBlend mode="normal" in2="BackgroundImageFix" result="effect1_dropShadow"/>
<feBlend mode="normal" in="SourceGraphic" in2="effect1_dropShadow" result="shape"/>
</filter>
</defs>
</svg>
