<svg width="195" height="32" viewBox="0 0 195 32" fill="none" xmlns="http://www.w3.org/2000/svg">
<path d="M49.1255 17.5552C49.1255 19.2642 48.7358 20.6348 47.9565 21.667C47.1841 22.6924 46.1382 23.2051 44.8188 23.2051C43.6978 23.2051 42.792 22.8154 42.1016 22.0361V27.2656H39.1382V11.9053H41.8862L41.9888 12.9922C42.7065 12.1309 43.6431 11.7002 44.7983 11.7002C46.1655 11.7002 47.2285 12.2061 47.9873 13.2178C48.7461 14.2295 49.1255 15.624 49.1255 17.4014V17.5552ZM46.1621 17.3398C46.1621 16.3076 45.9775 15.5112 45.6084 14.9507C45.2461 14.3901 44.7163 14.1099 44.019 14.1099C43.0894 14.1099 42.4502 14.4653 42.1016 15.1763V19.7188C42.4639 20.4502 43.1099 20.8159 44.0396 20.8159C45.4546 20.8159 46.1621 19.6572 46.1621 17.3398ZM50.5098 17.3501C50.5098 16.2495 50.7217 15.2686 51.1455 14.4072C51.5693 13.5459 52.1777 12.8794 52.9707 12.4077C53.7705 11.936 54.6968 11.7002 55.7495 11.7002C57.2466 11.7002 58.4668 12.1582 59.4102 13.0742C60.3604 13.9902 60.8901 15.2344 60.9995 16.8066L61.02 17.5654C61.02 19.2676 60.5449 20.6348 59.5947 21.667C58.6445 22.6924 57.3696 23.2051 55.77 23.2051C54.1704 23.2051 52.8921 22.6924 51.9351 21.667C50.9849 20.6416 50.5098 19.2471 50.5098 17.4834V17.3501ZM53.4731 17.5654C53.4731 18.6182 53.6714 19.4248 54.0679 19.9854C54.4644 20.5391 55.0317 20.8159 55.77 20.8159C56.4878 20.8159 57.0483 20.5425 57.4517 19.9956C57.855 19.4419 58.0566 18.5601 58.0566 17.3501C58.0566 16.3179 57.855 15.5181 57.4517 14.9507C57.0483 14.3833 56.481 14.0996 55.7495 14.0996C55.0249 14.0996 54.4644 14.3833 54.0679 14.9507C53.6714 15.5112 53.4731 16.3828 53.4731 17.5654ZM68.854 19.9341C68.854 19.5718 68.6729 19.2881 68.3105 19.083C67.9551 18.8711 67.3809 18.6831 66.5879 18.519C63.9492 17.9653 62.6299 16.8442 62.6299 15.1558C62.6299 14.1714 63.0366 13.3511 63.8501 12.6948C64.6704 12.0317 65.7402 11.7002 67.0596 11.7002C68.4678 11.7002 69.5923 12.0317 70.4331 12.6948C71.2808 13.3579 71.7046 14.2192 71.7046 15.2788H68.7412C68.7412 14.855 68.6045 14.5063 68.3311 14.2329C68.0576 13.9526 67.6304 13.8125 67.0493 13.8125C66.5503 13.8125 66.1641 13.9253 65.8906 14.1509C65.6172 14.3765 65.4805 14.6636 65.4805 15.0122C65.4805 15.3403 65.6343 15.6069 65.9419 15.812C66.2563 16.0103 66.7827 16.1846 67.521 16.335C68.2593 16.4785 68.8813 16.6426 69.3872 16.8271C70.9526 17.4014 71.7354 18.396 71.7354 19.811C71.7354 20.8228 71.3013 21.6431 70.4331 22.272C69.5649 22.894 68.4438 23.2051 67.0698 23.2051C66.1401 23.2051 65.313 23.041 64.5884 22.7129C63.8706 22.3779 63.3066 21.9233 62.8965 21.3491C62.4863 20.7681 62.2812 20.1426 62.2812 19.4727H65.0908C65.1182 19.999 65.313 20.4023 65.6753 20.6826C66.0376 20.9629 66.5229 21.103 67.1313 21.103C67.6987 21.103 68.126 20.9971 68.4131 20.7852C68.707 20.5664 68.854 20.2827 68.854 19.9341ZM77.2007 9.17773V11.9053H79.0977V14.0791H77.2007V19.6162C77.2007 20.0264 77.2793 20.3203 77.4365 20.498C77.5938 20.6758 77.8945 20.7646 78.3389 20.7646C78.667 20.7646 78.9575 20.7407 79.2104 20.6929V22.9385C78.6294 23.1162 78.0312 23.2051 77.416 23.2051C75.3379 23.2051 74.2783 22.1558 74.2373 20.0571V14.0791H72.6172V11.9053H74.2373V9.17773H77.2007ZM80.2871 17.3706C80.2871 15.6411 80.6733 14.2637 81.4458 13.2383C82.2251 12.2129 83.2881 11.7002 84.6348 11.7002C85.7148 11.7002 86.6069 12.1035 87.311 12.9102V7.25H90.2847V23H87.6084L87.4648 21.8208C86.7266 22.7437 85.7764 23.2051 84.6143 23.2051C83.3086 23.2051 82.2593 22.6924 81.4663 21.667C80.6802 20.6348 80.2871 19.2026 80.2871 17.3706ZM83.2505 17.5859C83.2505 18.625 83.4316 19.4214 83.7939 19.9751C84.1562 20.5288 84.6826 20.8057 85.373 20.8057C86.2891 20.8057 86.9351 20.4194 87.311 19.647V15.2686C86.9419 14.4961 86.3027 14.1099 85.3936 14.1099C83.9648 14.1099 83.2505 15.2686 83.2505 17.5859ZM92.1201 17.3501C92.1201 16.2495 92.332 15.2686 92.7559 14.4072C93.1797 13.5459 93.7881 12.8794 94.5811 12.4077C95.3809 11.936 96.3071 11.7002 97.3599 11.7002C98.8569 11.7002 100.077 12.1582 101.021 13.0742C101.971 13.9902 102.5 15.2344 102.61 16.8066L102.63 17.5654C102.63 19.2676 102.155 20.6348 101.205 21.667C100.255 22.6924 98.98 23.2051 97.3804 23.2051C95.7808 23.2051 94.5024 22.6924 93.5454 21.667C92.5952 20.6416 92.1201 19.2471 92.1201 17.4834V17.3501ZM95.0835 17.5654C95.0835 18.6182 95.2817 19.4248 95.6782 19.9854C96.0747 20.5391 96.6421 20.8159 97.3804 20.8159C98.0981 20.8159 98.6587 20.5425 99.062 19.9956C99.4653 19.4419 99.667 18.5601 99.667 17.3501C99.667 16.3179 99.4653 15.5181 99.062 14.9507C98.6587 14.3833 98.0913 14.0996 97.3599 14.0996C96.6353 14.0996 96.0747 14.3833 95.6782 14.9507C95.2817 15.5112 95.0835 16.3828 95.0835 17.5654ZM110.464 19.9341C110.464 19.5718 110.283 19.2881 109.921 19.083C109.565 18.8711 108.991 18.6831 108.198 18.519C105.56 17.9653 104.24 16.8442 104.24 15.1558C104.24 14.1714 104.647 13.3511 105.46 12.6948C106.281 12.0317 107.351 11.7002 108.67 11.7002C110.078 11.7002 111.203 12.0317 112.043 12.6948C112.891 13.3579 113.315 14.2192 113.315 15.2788H110.352C110.352 14.855 110.215 14.5063 109.941 14.2329C109.668 13.9526 109.241 13.8125 108.66 13.8125C108.161 13.8125 107.774 13.9253 107.501 14.1509C107.228 14.3765 107.091 14.6636 107.091 15.0122C107.091 15.3403 107.245 15.6069 107.552 15.812C107.867 16.0103 108.393 16.1846 109.131 16.335C109.87 16.4785 110.492 16.6426 110.998 16.8271C112.563 17.4014 113.346 18.396 113.346 19.811C113.346 20.8228 112.912 21.6431 112.043 22.272C111.175 22.894 110.054 23.2051 108.68 23.2051C107.75 23.2051 106.923 23.041 106.199 22.7129C105.481 22.3779 104.917 21.9233 104.507 21.3491C104.097 20.7681 103.892 20.1426 103.892 19.4727H106.701C106.729 19.999 106.923 20.4023 107.286 20.6826C107.648 20.9629 108.133 21.103 108.742 21.103C109.309 21.103 109.736 20.9971 110.023 20.7852C110.317 20.5664 110.464 20.2827 110.464 19.9341ZM118.811 9.17773V11.9053H120.708V14.0791H118.811V19.6162C118.811 20.0264 118.89 20.3203 119.047 20.498C119.204 20.6758 119.505 20.7646 119.949 20.7646C120.277 20.7646 120.568 20.7407 120.821 20.6929V22.9385C120.24 23.1162 119.642 23.2051 119.026 23.2051C116.948 23.2051 115.889 22.1558 115.848 20.0571V14.0791H114.228V11.9053H115.848V9.17773H118.811ZM128.788 23C128.651 22.7334 128.552 22.4019 128.491 22.0054C127.773 22.8052 126.84 23.2051 125.691 23.2051C124.604 23.2051 123.702 22.8906 122.984 22.2617C122.273 21.6328 121.918 20.8398 121.918 19.8828C121.918 18.707 122.352 17.8047 123.22 17.1758C124.095 16.5469 125.356 16.229 127.004 16.2222H128.368V15.5864C128.368 15.0737 128.234 14.6636 127.968 14.356C127.708 14.0483 127.294 13.8945 126.727 13.8945C126.228 13.8945 125.835 14.0142 125.548 14.2534C125.268 14.4927 125.127 14.8208 125.127 15.2378H122.164C122.164 14.5952 122.362 14.0005 122.759 13.4536C123.155 12.9067 123.716 12.4795 124.44 12.1719C125.165 11.8574 125.979 11.7002 126.881 11.7002C128.248 11.7002 129.332 12.0454 130.131 12.7358C130.938 13.4194 131.341 14.3833 131.341 15.6274V20.4365C131.348 21.4893 131.495 22.2856 131.782 22.8257V23H128.788ZM126.337 20.939C126.775 20.939 127.178 20.8433 127.547 20.6519C127.917 20.4536 128.19 20.1904 128.368 19.8623V17.9551H127.26C125.777 17.9551 124.987 18.4678 124.892 19.4932L124.881 19.6675C124.881 20.0366 125.011 20.3408 125.271 20.5801C125.531 20.8193 125.886 20.939 126.337 20.939ZM137.606 19.3804L139.667 11.9053H142.764L139.021 23H136.191L132.449 11.9053H135.545L137.606 19.3804ZM148.106 18.5498L147.04 19.6162V23H144.077V7.25H147.04V15.9761L147.614 15.2378L150.455 11.9053H154.013L150.003 16.5298L154.361 23H150.957L148.106 18.5498ZM161.724 23C161.587 22.7334 161.488 22.4019 161.426 22.0054C160.708 22.8052 159.775 23.2051 158.627 23.2051C157.54 23.2051 156.638 22.8906 155.92 22.2617C155.209 21.6328 154.854 20.8398 154.854 19.8828C154.854 18.707 155.288 17.8047 156.156 17.1758C157.031 16.5469 158.292 16.229 159.939 16.2222H161.303V15.5864C161.303 15.0737 161.17 14.6636 160.903 14.356C160.644 14.0483 160.23 13.8945 159.663 13.8945C159.164 13.8945 158.771 14.0142 158.483 14.2534C158.203 14.4927 158.063 14.8208 158.063 15.2378H155.1C155.1 14.5952 155.298 14.0005 155.694 13.4536C156.091 12.9067 156.651 12.4795 157.376 12.1719C158.101 11.8574 158.914 11.7002 159.816 11.7002C161.184 11.7002 162.267 12.0454 163.067 12.7358C163.874 13.4194 164.277 14.3833 164.277 15.6274V20.4365C164.284 21.4893 164.431 22.2856 164.718 22.8257V23H161.724ZM159.273 20.939C159.71 20.939 160.114 20.8433 160.483 20.6519C160.852 20.4536 161.125 20.1904 161.303 19.8623V17.9551H160.196C158.712 17.9551 157.923 18.4678 157.827 19.4932L157.817 19.6675C157.817 20.0366 157.947 20.3408 158.207 20.5801C158.466 20.8193 158.822 20.939 159.273 20.939ZM166.707 21.5439C166.707 21.0723 166.864 20.6895 167.179 20.3955C167.5 20.1016 167.9 19.9546 168.378 19.9546C168.864 19.9546 169.264 20.1016 169.578 20.3955C169.899 20.6895 170.06 21.0723 170.06 21.5439C170.06 22.0088 169.903 22.3882 169.588 22.6821C169.274 22.9692 168.871 23.1128 168.378 23.1128C167.893 23.1128 167.493 22.9692 167.179 22.6821C166.864 22.3882 166.707 22.0088 166.707 21.5439ZM177.771 23.2051C176.144 23.2051 174.818 22.7061 173.792 21.708C172.774 20.71 172.265 19.3804 172.265 17.7192V17.4321C172.265 16.3179 172.48 15.3232 172.911 14.4482C173.341 13.5664 173.95 12.8896 174.736 12.418C175.529 11.9395 176.431 11.7002 177.443 11.7002C178.96 11.7002 180.153 12.1787 181.021 13.1357C181.896 14.0928 182.334 15.4497 182.334 17.2065V18.4165H175.269C175.365 19.1411 175.652 19.7222 176.13 20.1597C176.616 20.5972 177.228 20.8159 177.966 20.8159C179.107 20.8159 180 20.4023 180.642 19.5752L182.098 21.2056C181.654 21.8345 181.052 22.3267 180.293 22.6821C179.535 23.0308 178.694 23.2051 177.771 23.2051ZM177.433 14.0996C176.845 14.0996 176.366 14.2979 175.997 14.6943C175.635 15.0908 175.402 15.6582 175.3 16.3965H179.422V16.1606C179.408 15.5044 179.23 14.9985 178.889 14.6431C178.547 14.2808 178.062 14.0996 177.433 14.0996ZM190.67 21.8721C189.939 22.7607 188.927 23.2051 187.635 23.2051C186.446 23.2051 185.537 22.8633 184.908 22.1797C184.286 21.4961 183.968 20.4946 183.954 19.1753V11.9053H186.917V19.0728C186.917 20.228 187.444 20.8057 188.497 20.8057C189.501 20.8057 190.192 20.457 190.568 19.7598V11.9053H193.542V23H190.752L190.67 21.8721Z" fill="white"/>
<path d="M29.482 8.62383L19.482 3.12383C19.3343 3.0426 19.1685 3 19 3C18.8315 3 18.6657 3.0426 18.518 3.12383L8.51799 8.62383C8.36121 8.71015 8.23046 8.83698 8.1394 8.99106C8.04834 9.14515 8.00031 9.32085 8.00031 9.49983C8.00031 9.67881 8.04834 9.85451 8.1394 10.0086C8.23046 10.1627 8.36121 10.2895 8.51799 10.3758L18 15.5908V26.3098L14.964 24.6398L14 26.3908L18.518 28.8758C18.6656 28.9572 18.8314 28.9999 19 28.9999C19.1686 28.9999 19.3344 28.9572 19.482 28.8758L29.482 23.3758C29.6388 23.2895 29.7696 23.1627 29.8608 23.0087C29.9519 22.8546 30 22.6788 30 22.4998V9.49983C30 9.32082 29.9519 9.14509 29.8608 8.99101C29.7696 8.83692 29.6388 8.71011 29.482 8.62383ZM19 5.14183L26.925 9.49983L19 13.8578L11.075 9.49983L19 5.14183ZM28 21.9088L20 26.3088V15.5898L28 11.1898V21.9088Z" fill="white"/>
<path d="M10 16H2V14H10V16Z" fill="white"/>
<path d="M12 24H4V22H12V24Z" fill="white"/>
<path d="M14 20H6V18H14V20Z" fill="white"/>
</svg>
