<svg width="35" height="35" viewBox="0 0 35 35" fill="none" xmlns="http://www.w3.org/2000/svg">
<path d="M17.5 0C7.83494 0 0 7.83494 0 17.5C0 27.1651 7.83494 35 17.5 35C27.1651 35 35 27.1651 35 17.5C35 7.83494 27.1651 0 17.5 0Z" fill="#40B3E0"/>
<path d="M26.0152 10.0667L22.8894 25.8262C22.8894 25.8262 22.4523 26.9191 21.2502 26.3945L14.0372 20.8645L11.4143 19.5969L6.99915 18.1105C6.99915 18.1105 6.32158 17.8701 6.25595 17.3455C6.19033 16.8209 7.02103 16.5368 7.02103 16.5368L24.5724 9.65166C24.5724 9.65166 26.0151 9.01784 26.0151 10.067" fill="white"/>
<path d="M13.4829 25.6488C13.4829 25.6488 13.2724 25.6291 13.0099 24.7984C12.7478 23.9678 11.4144 19.5964 11.4144 19.5964L22.0153 12.8644C22.0153 12.8644 22.6274 12.4928 22.6055 12.8644C22.6055 12.8644 22.7147 12.93 22.3867 13.236C22.059 13.5421 14.0592 20.7331 14.0592 20.7331" fill="#D2E5F1"/>
<path d="M16.8029 22.9842L13.9499 25.5854C13.9499 25.5854 13.7268 25.7546 13.4829 25.6485L14.0292 20.8169" fill="#B5CFE4"/>
</svg>
